<svg xmlns="http://www.w3.org/2000/svg" xmlns:xlink="http://www.w3.org/1999/xlink" width="1640" zoomAndPan="magnify" viewBox="0 0 1230 693.000001" height="924" preserveAspectRatio="xMidYMid meet" version="1.0"><defs><g/><clipPath id="8d6b3a8733"><path d="M 431 260 L 632 260 L 632 380 L 431 380 Z M 431 260 " clip-rule="nonzero"/></clipPath><clipPath id="569246e18a"><path d="M 423.246094 359.160156 L 433.765625 254.839844 L 641.660156 275.804688 L 631.140625 380.125 Z M 423.246094 359.160156 " clip-rule="nonzero"/></clipPath><clipPath id="ae5a23ff2f"><path d="M 423.246094 359.160156 L 433.765625 254.839844 L 641.660156 275.804688 L 631.140625 380.125 Z M 423.246094 359.160156 " clip-rule="nonzero"/></clipPath></defs><g fill="#2b2b2b" fill-opacity="1"><g transform="translate(325.936644, 422.390493)"><g><path d="M 45.222656 -2.75 C 43.390625 -2.75 38.195312 -6.417969 38.195312 -26.277344 L 38.195312 -119.167969 C 85.863281 -119.167969 96.863281 -107.558594 96.863281 -107.558594 L 99.613281 -107.558594 L 99.613281 -133.53125 L 96.863281 -133.53125 C 96.863281 -133.53125 85.863281 -122.222656 38.195312 -121.917969 L 38.195312 -211.753906 L 72.722656 -211.753906 C 103.277344 -208.390625 120.390625 -200.140625 139.03125 -188.53125 L 141.78125 -188.53125 L 141.78125 -214.503906 L 9.167969 -214.503906 L 9.167969 -211.753906 C 11 -211.753906 16.195312 -208.390625 16.195312 -188.222656 L 16.195312 -26.277344 C 16.195312 -6.417969 11 -2.75 9.167969 -2.75 L 9.167969 0 L 45.222656 0 Z M 45.222656 -2.75 "/></g></g></g><g fill="#2b2b2b" fill-opacity="1"><g transform="translate(476.882598, 422.390493)"><g><path d="M 143 -32.695312 C 148.5 -15.582031 148.808594 -2.75 146.667969 -2.75 L 146.667969 0 L 182.417969 0 L 182.417969 -2.75 C 177.835938 -2.75 170.195312 -21.390625 162.25 -44.304688 L 103.890625 -214.503906 L 80.667969 -214.503906 L 86.472656 -197.695312 L 32.082031 -38.5 C 22.613281 -11 13.75 -2.75 9.167969 -2.75 L 9.167969 0 L 35.140625 0 L 35.140625 -2.75 C 27.195312 -2.75 26.582031 -14.359375 34.832031 -37.582031 L 49.804688 -82.195312 C 54.082031 -94.113281 69.363281 -96.863281 80.363281 -95.945312 C 110.308594 -92.890625 131.390625 -66.917969 140.558594 -40.027344 Z M 88 -193.417969 L 132.917969 -62.640625 C 121.308594 -81.277344 103.277344 -96.25 80.363281 -98.390625 C 71.5 -99.308594 60.195312 -97.777344 53.167969 -91.363281 Z M 88 -193.417969 "/></g></g></g><g fill="#2b2b2b" fill-opacity="1"><g transform="translate(668.467795, 422.390493)"><g><path d="M 196.167969 27.804688 L 203.195312 18.332031 L 204.722656 16.195312 L 211.753906 7.027344 L 209.613281 5.5 C 209.613281 5.5 197.695312 7.332031 168.972656 -11.609375 C 212.363281 -34.832031 235.890625 -85.554688 222.445312 -135.363281 C 207.167969 -193.417969 147.585938 -227.640625 89.527344 -212.058594 C 31.777344 -196.78125 -2.445312 -137.195312 12.832031 -79.140625 C 28.417969 -21.390625 88 13.140625 145.75 -2.445312 C 152.78125 -4.277344 159.195312 -6.722656 165.308594 -9.777344 C 192.503906 13.445312 194.03125 25.972656 194.03125 25.972656 Z M 162.558594 -12.222656 C 157.058594 -9.167969 151.558594 -6.722656 145.140625 -5.195312 C 92.585938 9.167969 47.363281 -37.582031 34.527344 -84.945312 C 22 -132.613281 37.582031 -195.558594 90.445312 -209.613281 C 143 -223.667969 188.222656 -177.222656 201.058594 -129.558594 C 211.753906 -88.917969 201.667969 -36.667969 165.308594 -14.054688 C 162.25 -16.195312 158.585938 -18.640625 154.917969 -21.695312 L 138.417969 -33.917969 L 136.890625 -31.777344 L 153.085938 -19.554688 C 156.445312 -16.804688 159.5 -14.359375 162.558594 -12.222656 Z M 162.558594 -12.222656 "/></g></g></g><g clip-path="url(#8d6b3a8733)"><g clip-path="url(#569246e18a)"><g clip-path="url(#ae5a23ff2f)"><path fill="#2b2b2b" d="M 523.613281 311.8125 C 520.335938 312.347656 517.535156 313.570312 514.664062 314.476562 C 511.703125 315.410156 508.769531 316.484375 505.683594 316.820312 C 502.601562 317.148438 499.507812 317.332031 496.46875 318 C 493.425781 318.667969 490.328125 318.851562 487.226562 318.875 C 484.140625 318.898438 481.054688 318.769531 477.957031 318.707031 C 477.644531 319.550781 478.394531 319.46875 478.746094 319.578125 C 484.75 321.476562 490.90625 321.585938 497.140625 321.328125 C 503.898438 321.046875 510.875 318.363281 517.816406 315.648438 C 518.382812 315.425781 518.902344 315.042969 519.570312 315.222656 C 518.652344 317.089844 516.726562 317.558594 515.058594 318.226562 C 511.488281 319.660156 507.835938 320.875 504.199219 322.152344 C 503.5 322.398438 502.761719 322.578125 502.027344 322.664062 C 497.355469 323.234375 492.714844 323.761719 487.941406 323.640625 C 480.839844 323.457031 474.664062 320.753906 468.476562 317.835938 C 468.363281 317.78125 468.261719 317.710938 468.15625 317.644531 C 466.976562 316.878906 467.007812 315.871094 468.230469 315.015625 C 469.582031 314.066406 471.121094 313.585938 472.703125 313.238281 C 475.277344 312.671875 477.6875 311.769531 479.945312 310.386719 C 480.886719 309.808594 481.921875 309.273438 482.984375 309.015625 C 486.734375 308.113281 490.382812 306.898438 494.058594 305.757812 C 495.472656 305.316406 496.972656 305.089844 498.449219 304.933594 C 503.796875 304.367188 509.128906 304.722656 514.40625 305.605469 C 517.085938 306.054688 519.800781 306.59375 522.210938 307.988281 C 523.890625 308.964844 525.6875 309.25 527.585938 309.160156 C 530.566406 309.015625 533.546875 309.046875 536.519531 309.300781 C 536.890625 309.335938 537.265625 309.300781 537.269531 308.777344 C 537.128906 308.585938 537.03125 308.3125 536.847656 308.222656 C 527.761719 303.898438 518.632812 299.679688 509.113281 296.351562 C 507.683594 295.851562 506.242188 295.625 504.726562 295.691406 C 500.878906 295.875 497.039062 295.992188 493.199219 296.378906 C 489.625 296.742188 486.011719 296.886719 482.414062 296.90625 C 478.929688 296.929688 475.460938 296.492188 472.089844 295.59375 C 463.757812 293.378906 455.882812 290.078125 448.441406 285.710938 C 443.9375 283.070312 439.179688 280.945312 434.199219 279.347656 C 433.308594 279.0625 431.832031 279.304688 431.699219 278.191406 C 431.539062 276.835938 433.054688 276.671875 434.042969 276.28125 C 434.960938 275.917969 435.929688 275.652344 436.898438 275.425781 C 441.855469 274.277344 446.761719 272.921875 451.726562 271.78125 C 458.699219 270.175781 465.574219 270.484375 472.378906 272.164062 C 476.824219 273.257812 481.128906 274.957031 485.472656 276.457031 C 488.183594 277.402344 490.625 278.898438 493.085938 280.355469 C 497.609375 283.046875 501.441406 286.589844 505.160156 290.234375 C 508.226562 293.25 511.511719 295.773438 515.785156 296.800781 C 516.378906 296.941406 516.941406 297.238281 517.519531 297.472656 C 528.015625 301.691406 538.21875 306.542969 548.296875 311.65625 C 548.683594 311.855469 549.109375 312.226562 549.640625 311.734375 C 549.375 309.726562 547.902344 308.535156 546.445312 307.414062 C 543.101562 304.835938 539.585938 302.496094 535.808594 300.582031 C 530.046875 297.660156 524.46875 294.4375 519.035156 290.925781 C 511.714844 286.1875 505.765625 280.1875 501.222656 272.769531 C 500.773438 272.03125 500.195312 271.363281 499.597656 270.738281 C 496.679688 267.683594 493.695312 264.707031 489.828125 262.800781 C 489.261719 262.519531 488.210938 262.273438 488.613281 261.300781 C 488.957031 260.484375 489.871094 260.683594 490.605469 260.75 C 491.347656 260.816406 492.089844 260.898438 492.820312 261.035156 C 495.265625 261.492188 497.707031 261.9375 500.136719 262.460938 C 507.355469 264.007812 514.253906 266.40625 520.417969 270.570312 C 523.195312 272.441406 526.136719 274.167969 528.582031 276.417969 C 534.074219 281.476562 538.6875 287.320312 542.660156 293.652344 C 542.925781 294.070312 543.113281 294.539062 543.296875 294.996094 C 545.253906 299.949219 547.632812 304.671875 550.742188 309.027344 C 551.828125 310.554688 552.960938 311.996094 554.382812 313.226562 C 558.046875 316.402344 561.859375 319.363281 565.992188 321.910156 C 576.910156 328.632812 587.171875 336.207031 596.484375 345.042969 C 598.347656 346.8125 600.367188 348.417969 602.886719 350.175781 C 602.75 349.09375 602.472656 348.59375 602.15625 348.09375 C 600.164062 344.949219 598.210938 341.785156 596.722656 338.363281 C 596.054688 336.832031 594.894531 335.777344 593.566406 334.792969 C 587.894531 330.566406 582.296875 326.246094 576.625 322.015625 C 573.191406 319.453125 570.292969 316.34375 568.09375 312.757812 C 565.832031 309.074219 563.96875 305.113281 562.25 301.136719 C 559.652344 295.125 557.332031 288.992188 554.152344 283.246094 C 554.070312 283.09375 554.144531 282.746094 554.273438 282.605469 C 554.40625 282.460938 554.75 282.339844 554.910156 282.410156 C 555.46875 282.660156 556.023438 282.945312 556.519531 283.304688 C 558.230469 284.542969 559.871094 285.871094 561.605469 287.066406 C 568.058594 291.507812 574.113281 296.449219 580.097656 301.484375 C 582.6875 303.660156 584.757812 306.257812 586.332031 309.28125 C 588.929688 314.246094 591.121094 319.40625 592.804688 324.703125 C 595.234375 332.359375 599.28125 339.160156 603.125 346.085938 C 603.785156 347.277344 604.480469 348.433594 605.0625 349.675781 C 606.167969 352.035156 607.503906 354.28125 609.613281 355.933594 C 616.175781 361.089844 621.925781 367.09375 627.625 373.152344 C 628.730469 374.328125 629.746094 375.582031 630.726562 376.859375 C 631.371094 377.699219 631.054688 378.816406 630.097656 379.402344 C 629.34375 379.859375 628.671875 379.628906 628.113281 379.023438 C 627.777344 378.65625 627.492188 378.25 627.175781 377.871094 C 621.296875 370.804688 615.027344 364.101562 608.34375 357.792969 C 605.371094 354.980469 602.34375 352.210938 599.167969 349.632812 C 594.835938 346.113281 590.363281 342.757812 586.238281 338.988281 C 585.230469 338.074219 584.097656 337.292969 583.023438 336.453125 C 582.535156 336.070312 582.027344 335.734375 581.371094 335.671875 C 579.519531 335.503906 577.675781 335.273438 575.820312 335.136719 C 573.625 334.96875 571.644531 335.53125 569.964844 337.011719 C 568.074219 338.671875 565.835938 339.734375 563.570312 340.773438 C 561.652344 341.65625 559.753906 342.589844 557.929688 343.640625 C 556.070312 344.714844 554.136719 345.445312 552.027344 345.804688 C 550.441406 346.078125 548.824219 346.351562 547.316406 346.890625 C 545.285156 347.617188 543.234375 347.90625 541.105469 347.847656 C 538.871094 347.785156 536.632812 347.785156 534.402344 347.671875 C 528.433594 347.375 522.972656 345.472656 517.90625 342.371094 C 516.804688 341.695312 516.707031 341.300781 517.519531 340.34375 C 520.351562 337.027344 523.433594 333.976562 527.398438 332.007812 C 529.84375 330.789062 532.335938 329.671875 534.832031 328.566406 C 535.617188 328.21875 536.480469 327.9375 537.328125 327.847656 C 541.527344 327.40625 545.734375 326.960938 549.957031 327.609375 C 555.984375 328.539062 562 329.578125 567.542969 332.261719 C 570.769531 333.824219 573.996094 333.449219 577.269531 332.972656 C 577.34375 332.179688 576.859375 331.953125 576.496094 331.699219 C 568.457031 326.078125 560.292969 320.648438 551.753906 315.800781 C 549.488281 314.515625 547.148438 313.359375 544.816406 312.195312 C 544.167969 311.871094 543.421875 311.546875 542.71875 311.539062 C 537.382812 311.511719 532.046875 310.898438 526.707031 311.402344 C 525.640625 311.503906 524.910156 311.863281 524.1875 312.6875 C 522.957031 314.078125 521.457031 315.175781 519.46875 315.273438 C 520.246094 313.554688 522.429688 313.597656 523.613281 311.8125 Z M 590.789062 325.90625 C 590.460938 324.632812 589.867188 323.550781 588.621094 322.949219 C 588.65625 322.515625 588.523438 322.152344 588.148438 321.902344 C 588.320312 321.46875 588.1875 321.152344 587.765625 320.957031 C 587.777344 319.828125 587.183594 319.160156 586.148438 318.824219 C 586.324219 318.355469 586.105469 318.066406 585.695312 317.867188 C 585.601562 316.445312 584.875 315.441406 583.648438 314.769531 C 583.546875 313.714844 582.894531 313.105469 581.984375 312.703125 C 581.847656 312.347656 581.707031 311.988281 581.570312 311.628906 C 581.1875 311.253906 580.800781 310.878906 580.414062 310.507812 C 580.828125 310.871094 581.238281 311.226562 581.652344 311.582031 C 581.789062 311.945312 581.921875 312.304688 582.058594 312.660156 C 582.316406 313.570312 582.699219 314.382812 583.648438 314.769531 C 583.839844 316.144531 584.621094 317.113281 585.757812 317.835938 C 585.605469 318.300781 585.804688 318.597656 586.214844 318.792969 C 586.316406 319.839844 586.871094 320.539062 587.835938 320.921875 C 587.691406 321.347656 587.894531 321.636719 588.21875 321.871094 C 588.378906 322.214844 588.542969 322.558594 588.699219 322.898438 C 589.226562 324.03125 589.546875 325.308594 590.859375 325.867188 C 590.769531 326.285156 590.921875 326.601562 591.28125 326.820312 L 591.34375 326.980469 L 591.300781 326.859375 C 591.132812 326.542969 590.964844 326.222656 590.789062 325.90625 Z M 587.171875 315.929688 C 587.027344 315.617188 586.882812 315.304688 586.734375 314.988281 C 584.914062 309.765625 582.054688 305.25 577.707031 301.742188 C 575.878906 300.277344 574.089844 298.769531 572.300781 297.257812 C 571.539062 296.613281 570.742188 296.050781 569.773438 295.769531 C 569.675781 295.574219 569.582031 295.382812 569.484375 295.191406 C 569.085938 295.710938 569.734375 295.542969 569.839844 295.734375 C 570.753906 297.492188 572.148438 298.878906 573.480469 300.296875 C 577.609375 304.683594 581.734375 309.070312 585.378906 313.875 C 585.753906 314.367188 586.144531 314.835938 586.808594 314.949219 C 586.773438 315.347656 586.863281 315.683594 587.242188 315.894531 C 587.382812 316.230469 587.53125 316.570312 587.671875 316.90625 L 587.730469 317.097656 L 587.707031 316.953125 C 587.535156 316.609375 587.355469 316.269531 587.171875 315.929688 Z M 564.308594 338.601562 C 564.484375 338.636719 564.421875 338.804688 564.203125 338.714844 C 564.203125 338.710938 564.078125 338.75 564.078125 338.75 L 564.226562 338.730469 C 564.46875 338.304688 563.828125 338.503906 564.308594 338.601562 Z M 561.699219 339.335938 L 561.535156 339.261719 C 561.238281 339.449219 560.949219 339.648438 560.660156 339.851562 C 560.417969 339.832031 560.148438 339.726562 559.929688 339.796875 C 553.949219 341.6875 547.753906 341.816406 541.5625 342.132812 C 536.859375 342.378906 532.160156 342.542969 527.453125 342.292969 C 525.503906 342.1875 523.558594 342.027344 521.625 341.898438 C 521.347656 342.742188 522.046875 342.757812 522.40625 342.9375 C 526.238281 344.859375 530.359375 345.695312 534.589844 345.953125 C 537.304688 346.117188 540.039062 346.074219 542.761719 346.042969 C 543.742188 346.03125 544.785156 345.964844 545.683594 345.625 C 548.253906 344.652344 550.9375 344.210938 553.597656 343.613281 C 556.269531 343.011719 558.710938 341.867188 560.648438 339.835938 C 561.164062 339.917969 561.402344 339.640625 561.492188 339.179688 Z M 566.894531 293.078125 C 566.914062 293.082031 566.9375 293.082031 566.953125 293.085938 C 566.914062 293.285156 566.917969 293.039062 566.894531 293.078125 Z M 566.875 297.792969 C 567.207031 298.183594 567.527344 298.578125 567.84375 298.96875 L 567.917969 299.140625 L 567.859375 299 C 567.511719 298.605469 567.160156 298.207031 566.808594 297.804688 C 566.363281 297.429688 565.921875 297.050781 565.480469 296.679688 L 565.410156 296.496094 L 565.453125 296.636719 C 565.929688 297.019531 566.398438 297.40625 566.875 297.792969 Z M 570.71875 302.34375 C 571.097656 302.746094 571.46875 303.148438 571.84375 303.550781 C 572.082031 304.085938 572.433594 304.503906 572.992188 304.71875 C 573.007812 304.839844 572.96875 304.996094 573.03125 305.085938 C 576.300781 309.75 579.488281 314.46875 583.136719 318.847656 C 583.433594 319.207031 583.917969 319.410156 584.316406 319.691406 C 584.164062 320.152344 584.414062 320.433594 584.761719 320.675781 C 584.898438 321.339844 585.398438 321.613281 585.988281 321.785156 L 585.980469 322.054688 L 585.910156 321.824219 C 585.738281 321.191406 585.265625 320.898438 584.691406 320.710938 C 584.820312 320.257812 584.613281 319.953125 584.25 319.726562 C 583.800781 317.75 582.339844 316.363281 581.273438 314.761719 C 579.71875 312.425781 578.09375 310.136719 576.386719 307.917969 C 575.4375 306.679688 574.542969 305.3125 572.933594 304.757812 C 572.933594 303.984375 572.28125 303.863281 571.773438 303.59375 C 571.6875 302.929688 571.113281 302.710938 570.652344 302.382812 C 570.441406 301.761719 569.890625 301.539062 569.378906 301.265625 L 569.378906 301.082031 L 569.390625 301.207031 C 569.824219 301.585938 570.273438 301.964844 570.71875 302.34375 Z M 577.136719 318.625 C 574.453125 315.414062 571.523438 312.410156 569.050781 309.019531 C 568.917969 308.839844 568.632812 308.773438 568.421875 308.65625 C 568.554688 308.25 568.285156 308.023438 568.042969 307.765625 C 567.816406 307.527344 567.644531 307.488281 567.523438 307.734375 C 567.488281 307.816406 567.523438 307.988281 567.59375 308.050781 C 567.84375 308.277344 568.121094 308.472656 568.382812 308.679688 C 568.34375 309.988281 568.945312 311.109375 569.652344 312.09375 C 572.191406 315.613281 574.921875 318.976562 578.550781 321.464844 C 579.050781 321.808594 579.664062 321.984375 580.226562 322.238281 C 580.324219 322.425781 580.421875 322.617188 580.519531 322.804688 C 580.917969 322.28125 580.28125 322.449219 580.160156 322.273438 C 579.535156 320.746094 578.152344 319.832031 577.136719 318.625 Z M 581.839844 320.03125 C 578.277344 315.171875 574.710938 310.324219 571.042969 305.550781 C 569.621094 303.707031 567.941406 302.058594 566.328125 300.375 C 566.023438 300.054688 565.464844 299.984375 565.023438 299.800781 L 565.152344 299.617188 L 565.101562 299.757812 C 566.507812 303.828125 569.53125 306.847656 572.074219 310.140625 C 575.464844 314.53125 579.03125 318.800781 583.125 322.582031 C 583.273438 322.683594 583.417969 322.777344 583.566406 322.875 C 583.402344 322.78125 583.230469 322.691406 583.0625 322.597656 C 583.226562 321.472656 582.390625 320.78125 581.839844 320.03125 Z M 522.488281 338.289062 C 524.882812 338.351562 527.160156 337.730469 529.390625 336.984375 C 531.183594 336.386719 532.976562 336.152344 534.863281 336.160156 C 539.953125 336.171875 545.03125 335.832031 550.074219 335.1875 C 552.175781 334.921875 554.28125 335.167969 556.917969 334.859375 C 554.703125 334.140625 552.917969 334.105469 551.140625 334.011719 C 548.914062 333.902344 546.683594 333.722656 544.453125 333.65625 C 543.09375 333.613281 541.726562 333.679688 540.367188 333.808594 C 538.144531 334.019531 535.914062 334.230469 533.71875 334.601562 C 529.796875 335.265625 526.03125 336.449219 522.519531 338.34375 Z M 518.089844 311.410156 C 518.027344 311.378906 517.96875 311.332031 517.90625 311.320312 C 517.800781 311.300781 517.691406 311.308594 517.585938 311.304688 C 510.605469 311.269531 503.757812 312.46875 496.886719 313.421875 C 495.535156 313.609375 494.175781 313.734375 492.824219 313.890625 C 491.839844 314 490.828125 314.003906 489.875 314.242188 C 486.878906 314.984375 483.945312 315.980469 480.808594 316.519531 C 482.125 316.640625 483.433594 316.832031 484.75 316.871094 C 489.21875 317.015625 493.667969 316.859375 498.082031 316.011719 C 500.269531 315.589844 502.496094 315.328125 504.714844 315.136719 C 508.707031 314.789062 512.511719 313.722656 516.257812 312.386719 C 516.832031 312.183594 517.429688 311.957031 517.542969 311.226562 C 517.71875 311.285156 517.90625 311.351562 518.089844 311.410156 Z M 487.769531 294.601562 C 488.085938 294.730469 488.25 294.667969 488.179688 294.425781 C 488.167969 294.378906 487.964844 294.359375 487.855469 294.363281 C 487.625 294.371094 487.390625 294.40625 487.164062 294.421875 C 479.597656 294.25 472.566406 292.042969 465.6875 289.070312 C 458.414062 285.917969 450.921875 283.316406 443.382812 280.882812 C 443.074219 280.785156 442.730469 280.792969 442.363281 280.867188 C 447.078125 282.507812 451.117188 285.433594 455.558594 287.574219 C 463.300781 291.3125 471.265625 294.269531 479.917969 294.996094 C 481.765625 295.152344 483.625 295.285156 485.472656 295.003906 C 486.058594 294.914062 486.726562 294.960938 487.117188 294.347656 C 487.335938 294.433594 487.554688 294.511719 487.769531 294.601562 Z M 524.070312 335.917969 L 524.207031 335.929688 C 526.429688 335.148438 528.648438 334.363281 530.871094 333.582031 C 531.105469 333.5 531.347656 333.410156 531.585938 333.386719 C 536.386719 332.921875 541.121094 331.96875 546.023438 332.222656 C 552.105469 332.535156 558.128906 333.316406 564.183594 333.855469 C 564.410156 333.875 564.648438 333.761719 564.882812 333.710938 C 564.984375 333.050781 564.46875 332.878906 564.03125 332.691406 C 559.519531 330.777344 554.707031 330.167969 549.921875 329.402344 C 545.714844 328.726562 541.503906 328.960938 537.296875 329.328125 C 536.554688 329.390625 535.773438 329.441406 535.105469 329.730469 C 531.464844 331.300781 527.921875 333.078125 524.597656 335.25 C 524.421875 335.363281 524.375 335.679688 524.269531 335.898438 Z M 503.921875 273.933594 C 507.429688 278.25 510.910156 282.648438 515.480469 285.964844 C 519.796875 289.097656 524.25 292.035156 528.882812 294.683594 C 529.191406 294.863281 529.566406 294.933594 530.449219 295.238281 C 527.960938 292.699219 525.925781 290.457031 523.714844 288.402344 C 520.539062 285.449219 517.242188 282.628906 514 279.746094 C 513.351562 279.167969 512.613281 278.652344 512.109375 277.964844 C 509.804688 274.804688 506.5625 272.679688 503.636719 270.207031 C 502.664062 269.390625 501.597656 268.800781 500.421875 268.378906 C 500.296875 268.285156 500.171875 268.191406 500.042969 268.097656 C 500.097656 268.160156 500.132812 268.246094 500.203125 268.28125 C 500.28125 268.320312 500.386719 268.328125 500.480469 268.347656 C 501.195312 270.464844 502.574219 272.277344 503.921875 273.933594 Z M 500.1875 293.507812 C 491.539062 290.800781 482.871094 288.191406 473.996094 286.304688 C 467.808594 284.988281 461.652344 283.558594 455.398438 282.164062 C 456.054688 283.214844 457.203125 283.132812 458.0625 283.597656 C 459.042969 284.121094 460.042969 284.644531 461.078125 285.046875 C 466.171875 287.023438 471.269531 288.980469 476.382812 290.894531 C 478.71875 291.769531 481.148438 292.269531 483.632812 292.507812 C 487.832031 292.90625 492.019531 293.375 496.222656 293.726562 C 497.527344 293.839844 498.90625 294.320312 500.15625 293.441406 C 500.144531 293.472656 500.3125 293.429688 500.1875 293.507812 Z M 534.417969 285.277344 C 534.050781 284.785156 533.542969 284.390625 533.179688 283.894531 C 528.199219 277.125 521.1875 272.921875 514.097656 268.820312 C 513.140625 268.265625 512.09375 267.832031 511.046875 267.457031 C 507.789062 266.28125 504.507812 265.160156 501.152344 264.207031 C 503.605469 266.269531 506.546875 267.445312 509.328125 268.886719 C 513.625 271.117188 517.671875 273.71875 521.308594 276.933594 C 522.886719 278.324219 524.488281 279.699219 526.140625 280.996094 C 528.792969 283.0625 531.023438 285.558594 533.308594 287.992188 C 534.582031 289.347656 535.457031 290.992188 536.382812 292.609375 C 538.039062 295.515625 539.96875 298.238281 543.148438 299.738281 L 543.1875 299.929688 L 543.175781 299.796875 C 541.542969 294.1875 537.816406 289.828125 534.417969 285.277344 Z M 474.78125 314.71875 C 479.34375 314.339844 483.945312 314.285156 488.394531 313.027344 C 489.347656 312.757812 490.320312 312.472656 491.296875 312.410156 C 497.25 312 503.113281 310.910156 509.015625 310.160156 C 511.222656 309.882812 513.46875 309.894531 515.695312 309.769531 C 517.265625 309.679688 518.863281 309.738281 520.574219 309.191406 C 519.921875 308.191406 519.011719 308.148438 518.261719 307.972656 C 511.6875 306.453125 505.042969 305.863281 498.308594 306.417969 C 495.695312 306.636719 493.164062 307.203125 490.714844 308.15625 C 489.558594 308.605469 488.390625 309.117188 487.183594 309.304688 C 482.785156 309.992188 479.015625 312.144531 475.191406 314.191406 C 475.015625 314.285156 474.941406 314.582031 474.824219 314.785156 C 474.8125 314.761719 474.796875 314.742188 474.78125 314.71875 Z M 440.742188 276.054688 L 440.851562 276.039062 C 448.410156 276.054688 455.949219 276.375 463.457031 277.222656 C 471.367188 278.117188 479.132812 279.714844 486.363281 283.207031 C 490.042969 284.984375 493.644531 286.917969 497.234375 288.867188 C 499.066406 289.867188 500.914062 290.800781 502.898438 291.726562 C 502.902344 291.234375 502.996094 290.917969 502.890625 290.8125 C 500.234375 288.21875 497.539062 285.671875 494.515625 283.492188 C 490.164062 280.347656 485.492188 277.855469 480.34375 276.273438 C 478.210938 275.617188 476.082031 274.949219 473.964844 274.242188 C 468.476562 272.398438 462.765625 271.78125 457.085938 272.332031 C 451.582031 272.863281 446.039062 273.691406 440.902344 276.042969 Z M 467.371094 283.097656 C 475.953125 285.050781 484.605469 286.734375 492.96875 289.554688 C 493.898438 289.863281 494.859375 290.082031 496.257812 290.472656 C 482.394531 281.367188 466.550781 277.777344 446.304688 278.570312 C 453.324219 280.070312 460.363281 281.5 467.371094 283.097656 Z M 506.914062 270.671875 C 507.882812 271.4375 508.976562 272.109375 509.773438 273.027344 C 515.21875 279.308594 521.941406 284.265625 527.679688 290.253906 C 530.214844 292.898438 533.328125 295 536.363281 297.195312 C 535.191406 294.132812 533.839844 291.230469 531.628906 288.800781 C 530.464844 287.515625 529.429688 286.085938 528.144531 284.949219 C 524.070312 281.351562 520.09375 277.617188 515.527344 274.617188 C 512.84375 272.851562 510.289062 270.875 507.296875 269.609375 C 506.734375 269.375 506.175781 269.132812 505.527344 268.855469 C 505.707031 269.820312 506.339844 270.214844 506.914062 270.671875 Z M 526.730469 341.050781 C 536.28125 341.316406 545.785156 340.734375 555.261719 339.566406 C 557.128906 339.335938 558.871094 338.699219 560.621094 338.085938 C 561.28125 337.855469 562.105469 337.863281 562.460938 337.070312 C 562.378906 336.964844 562.296875 336.78125 562.222656 336.78125 C 557.535156 336.90625 552.859375 336.582031 548.144531 337.09375 C 543.613281 337.585938 539.042969 338.148438 534.449219 337.960938 C 532.691406 337.886719 531.007812 338.132812 529.335938 338.695312 C 527.722656 339.238281 526.054688 339.613281 524.339844 340.082031 C 525 341.152344 525.929688 341.03125 526.730469 341.050781 Z M 526.730469 341.050781 " fill-opacity="1" fill-rule="nonzero"/></g></g></g></svg>