<svg xmlns="http://www.w3.org/2000/svg" xmlns:xlink="http://www.w3.org/1999/xlink" width="150" zoomAndPan="magnify" viewBox="0 0 112.5 44.999999" height="60" preserveAspectRatio="xMidYMid meet" version="1.0"><defs><g/><clipPath id="e78f45606c"><path d="M 54.34375 5.84375 L 112.003906 5.84375 L 112.003906 35.09375 L 54.34375 35.09375 Z M 54.34375 5.84375 " clip-rule="nonzero"/></clipPath></defs><g fill="#ffffff" fill-opacity="1"><g transform="translate(-1.009427, 40.244527)"><g><path d="M 36.496094 -35.632812 L 21.015625 -3.503906 L 5.53125 -35.632812 L 1.523438 -35.632812 L 3.453125 -31.621094 L 3.453125 -8.324219 C 3.453125 -3.605469 2.285156 -0.457031 1.523438 -0.457031 L 1.523438 0 L 5.835938 0 L 5.835938 -0.457031 C 5.074219 -0.457031 3.910156 -3.605469 3.910156 -8.324219 L 3.910156 -30.710938 L 18.679688 0 L 22.6875 0 L 21.269531 -2.996094 L 36.496094 -34.566406 L 36.496094 -4.367188 C 36.496094 -1.066406 35.632812 -0.457031 35.328125 -0.457031 L 35.328125 0 L 41.316406 0 L 41.316406 -0.457031 C 41.011719 -0.457031 40.148438 -1.066406 40.148438 -4.367188 L 40.148438 -31.265625 C 40.148438 -34.617188 41.011719 -35.175781 41.316406 -35.175781 L 41.316406 -35.632812 Z M 36.496094 -35.632812 "/></g></g></g><g clip-path="url(#e78f45606c)"><path fill="#ffffff" d="M 80.628906 19.144531 C 79.746094 19.382812 79.007812 19.800781 78.242188 20.132812 C 77.457031 20.476562 76.679688 20.855469 75.839844 21.035156 C 75 21.210938 74.15625 21.351562 73.339844 21.621094 C 72.519531 21.890625 71.671875 22.027344 70.820312 22.121094 C 69.972656 22.214844 69.121094 22.265625 68.265625 22.335938 C 68.203125 22.578125 68.410156 22.535156 68.507812 22.554688 C 70.210938 22.914062 71.90625 22.769531 73.613281 22.523438 C 75.464844 22.257812 77.308594 21.316406 79.144531 20.371094 C 79.292969 20.292969 79.425781 20.171875 79.613281 20.203125 C 79.414062 20.746094 78.898438 20.929688 78.457031 21.164062 C 77.515625 21.660156 76.542969 22.101562 75.578125 22.558594 C 75.394531 22.644531 75.195312 22.714844 74.996094 22.757812 C 73.726562 23.046875 72.464844 23.324219 71.148438 23.425781 C 69.191406 23.574219 67.417969 22.996094 65.636719 22.359375 C 65.605469 22.347656 65.574219 22.328125 65.542969 22.3125 C 65.195312 22.132812 65.175781 21.851562 65.488281 21.582031 C 65.835938 21.28125 66.246094 21.105469 66.671875 20.964844 C 67.363281 20.734375 68 20.414062 68.582031 19.96875 C 68.824219 19.78125 69.09375 19.605469 69.382812 19.503906 C 70.386719 19.148438 71.355469 18.707031 72.335938 18.289062 C 72.710938 18.128906 73.117188 18.023438 73.519531 17.9375 C 74.976562 17.632812 76.449219 17.578125 77.925781 17.675781 C 78.675781 17.726562 79.4375 17.800781 80.140625 18.121094 C 80.628906 18.34375 81.128906 18.375 81.648438 18.292969 C 82.464844 18.171875 83.285156 18.097656 84.109375 18.085938 C 84.214844 18.082031 84.316406 18.0625 84.300781 17.917969 C 84.257812 17.867188 84.222656 17.796875 84.171875 17.777344 C 81.550781 16.828125 78.925781 15.914062 76.214844 15.257812 C 75.808594 15.160156 75.40625 15.136719 74.992188 15.195312 C 73.9375 15.355469 72.882812 15.496094 71.839844 15.710938 C 70.867188 15.910156 69.875 16.050781 68.886719 16.160156 C 67.929688 16.261719 66.964844 16.238281 66.011719 16.082031 C 63.660156 15.703125 61.402344 15.003906 59.234375 14 C 57.925781 13.394531 56.558594 12.9375 55.140625 12.632812 C 54.890625 12.578125 54.492188 12.6875 54.421875 12.382812 C 54.339844 12.011719 54.753906 11.921875 55.015625 11.785156 C 55.257812 11.660156 55.515625 11.558594 55.777344 11.46875 C 57.109375 11.011719 58.417969 10.5 59.753906 10.042969 C 61.625 9.402344 63.523438 9.292969 65.441406 9.570312 C 66.695312 9.75 67.925781 10.101562 69.164062 10.394531 C 69.933594 10.582031 70.648438 10.929688 71.363281 11.265625 C 72.683594 11.886719 73.835938 12.761719 74.957031 13.667969 C 75.886719 14.421875 76.859375 15.03125 78.0625 15.195312 C 78.230469 15.21875 78.390625 15.285156 78.558594 15.332031 C 81.5625 16.210938 84.5 17.269531 87.414062 18.410156 C 87.527344 18.453125 87.652344 18.542969 87.785156 18.390625 C 87.65625 17.84375 87.21875 17.554688 86.789062 17.28125 C 85.796875 16.660156 84.765625 16.109375 83.671875 15.683594 C 82.007812 15.035156 80.382812 14.292969 78.792969 13.472656 C 76.648438 12.363281 74.847656 10.863281 73.390625 8.929688 C 73.246094 8.738281 73.070312 8.570312 72.886719 8.414062 C 72 7.644531 71.097656 6.902344 69.980469 6.480469 C 69.816406 6.421875 69.523438 6.382812 69.605469 6.101562 C 69.675781 5.863281 69.933594 5.894531 70.136719 5.890625 C 70.34375 5.890625 70.550781 5.890625 70.753906 5.910156 C 71.441406 5.96875 72.125 6.023438 72.804688 6.097656 C 74.835938 6.328125 76.796875 6.800781 78.609375 7.78125 C 79.425781 8.226562 80.28125 8.621094 81.015625 9.175781 C 82.667969 10.429688 84.097656 11.921875 85.367188 13.570312 C 85.449219 13.675781 85.515625 13.800781 85.578125 13.921875 C 86.253906 15.242188 87.039062 16.488281 88.015625 17.609375 C 88.355469 18.003906 88.707031 18.371094 89.132812 18.675781 C 90.226562 19.453125 91.359375 20.167969 92.5625 20.757812 C 95.753906 22.320312 98.785156 24.136719 101.589844 26.328125 C 102.152344 26.765625 102.753906 27.15625 103.496094 27.574219 C 103.425781 27.277344 103.335938 27.144531 103.234375 27.015625 C 102.601562 26.199219 101.976562 25.375 101.472656 24.464844 C 101.246094 24.058594 100.898438 23.800781 100.503906 23.5625 C 98.828125 22.550781 97.167969 21.507812 95.492188 20.492188 C 94.476562 19.875 93.59375 19.09375 92.890625 18.160156 C 92.164062 17.199219 91.542969 16.152344 90.960938 15.097656 C 90.078125 13.5 89.269531 11.863281 88.238281 10.359375 C 88.210938 10.316406 88.222656 10.21875 88.253906 10.175781 C 88.285156 10.132812 88.375 10.089844 88.421875 10.105469 C 88.582031 10.160156 88.742188 10.222656 88.890625 10.308594 C 89.394531 10.605469 89.882812 10.925781 90.394531 11.210938 C 92.289062 12.261719 94.089844 13.464844 95.878906 14.695312 C 96.648438 15.226562 97.289062 15.890625 97.808594 16.683594 C 98.660156 17.988281 99.40625 19.359375 100.015625 20.785156 C 100.894531 22.84375 102.195312 24.617188 103.445312 26.429688 C 103.660156 26.742188 103.882812 27.046875 104.078125 27.375 C 104.449219 27.996094 104.878906 28.582031 105.503906 28.984375 C 107.453125 30.230469 109.199219 31.738281 110.933594 33.261719 C 111.269531 33.554688 111.585938 33.875 111.890625 34.203125 C 112.089844 34.417969 112.035156 34.734375 111.789062 34.925781 C 111.59375 35.074219 111.402344 35.027344 111.230469 34.875 C 111.128906 34.785156 111.039062 34.679688 110.941406 34.582031 C 109.128906 32.785156 107.21875 31.097656 105.207031 29.535156 C 104.308594 28.835938 103.402344 28.152344 102.457031 27.527344 C 101.167969 26.671875 99.84375 25.863281 98.605469 24.933594 C 98.304688 24.707031 97.96875 24.523438 97.652344 24.320312 C 97.507812 24.226562 97.359375 24.148438 97.175781 24.148438 C 96.660156 24.15625 96.148438 24.140625 95.632812 24.15625 C 95.027344 24.171875 94.496094 24.382812 94.074219 24.839844 C 93.601562 25.355469 93.015625 25.710938 92.421875 26.0625 C 91.917969 26.363281 91.421875 26.675781 90.949219 27.019531 C 90.46875 27.367188 89.957031 27.625 89.386719 27.785156 C 88.957031 27.902344 88.523438 28.027344 88.121094 28.21875 C 87.582031 28.476562 87.027344 28.613281 86.441406 28.65625 C 85.824219 28.703125 85.207031 28.765625 84.59375 28.796875 C 82.941406 28.878906 81.386719 28.503906 79.910156 27.785156 C 79.585938 27.628906 79.550781 27.523438 79.746094 27.234375 C 80.433594 26.234375 81.195312 25.300781 82.230469 24.644531 C 82.871094 24.238281 83.523438 23.855469 84.179688 23.480469 C 84.386719 23.359375 84.617188 23.257812 84.847656 23.210938 C 85.988281 22.96875 87.132812 22.726562 88.3125 22.792969 C 89.996094 22.878906 91.679688 23 93.277344 23.589844 C 94.210938 23.933594 95.085938 23.738281 95.972656 23.515625 C 95.96875 23.292969 95.832031 23.242188 95.722656 23.183594 C 93.359375 21.847656 90.960938 20.570312 88.480469 19.460938 C 87.820312 19.167969 87.144531 18.914062 86.472656 18.65625 C 86.285156 18.582031 86.070312 18.515625 85.875 18.53125 C 84.410156 18.675781 82.925781 18.652344 81.46875 18.941406 C 81.179688 19 80.988281 19.121094 80.8125 19.371094 C 80.511719 19.789062 80.132812 20.136719 79.585938 20.21875 C 79.753906 19.722656 80.355469 19.671875 80.628906 19.144531 Z M 99.496094 21.175781 C 99.367188 20.828125 99.175781 20.546875 98.816406 20.414062 C 98.8125 20.292969 98.769531 20.195312 98.65625 20.136719 C 98.691406 20.011719 98.648438 19.929688 98.527344 19.886719 C 98.5 19.570312 98.316406 19.402344 98.023438 19.339844 C 98.058594 19.203125 97.988281 19.128906 97.871094 19.085938 C 97.804688 18.695312 97.578125 18.433594 97.222656 18.28125 C 97.164062 17.992188 96.96875 17.84375 96.707031 17.757812 C 96.660156 17.660156 96.609375 17.566406 96.5625 17.46875 C 96.449219 17.375 96.332031 17.28125 96.214844 17.191406 C 96.339844 17.28125 96.460938 17.367188 96.585938 17.453125 C 96.632812 17.550781 96.679688 17.648438 96.726562 17.742188 C 96.820312 17.988281 96.949219 18.203125 97.222656 18.28125 C 97.3125 18.660156 97.554688 18.90625 97.886719 19.074219 C 97.859375 19.210938 97.921875 19.285156 98.039062 19.328125 C 98.097656 19.617188 98.269531 19.796875 98.542969 19.875 C 98.515625 19.996094 98.578125 20.070312 98.675781 20.125 C 98.730469 20.21875 98.785156 20.308594 98.835938 20.398438 C 99.011719 20.699219 99.136719 21.042969 99.511719 21.160156 C 99.5 21.28125 99.550781 21.363281 99.65625 21.414062 L 99.675781 21.457031 L 99.660156 21.425781 C 99.605469 21.339844 99.550781 21.257812 99.496094 21.175781 Z M 98.222656 18.507812 C 98.175781 18.421875 98.125 18.339844 98.078125 18.257812 C 97.429688 16.859375 96.519531 15.683594 95.226562 14.832031 C 94.683594 14.476562 94.148438 14.109375 93.617188 13.738281 C 93.390625 13.582031 93.152344 13.449219 92.878906 13.398438 C 92.847656 13.347656 92.816406 13.292969 92.785156 13.246094 C 92.6875 13.398438 92.863281 13.335938 92.898438 13.386719 C 93.195312 13.847656 93.621094 14.195312 94.023438 14.550781 C 95.28125 15.652344 96.539062 16.753906 97.671875 17.984375 C 97.789062 18.113281 97.910156 18.230469 98.097656 18.246094 C 98.097656 18.355469 98.132812 18.445312 98.242188 18.496094 C 98.289062 18.582031 98.339844 18.675781 98.386719 18.761719 L 98.410156 18.816406 L 98.398438 18.773438 C 98.339844 18.683594 98.28125 18.59375 98.222656 18.507812 Z M 92.5625 25.441406 C 92.613281 25.445312 92.601562 25.492188 92.539062 25.476562 C 92.539062 25.472656 92.503906 25.488281 92.503906 25.488281 L 92.546875 25.476562 C 92.601562 25.351562 92.429688 25.425781 92.5625 25.441406 Z M 91.867188 25.71875 L 91.820312 25.703125 C 91.742188 25.761719 91.671875 25.824219 91.597656 25.890625 C 91.527344 25.890625 91.453125 25.871094 91.394531 25.894531 C 89.800781 26.585938 88.101562 26.796875 86.40625 27.058594 C 85.121094 27.257812 83.832031 27.433594 82.53125 27.496094 C 81.992188 27.523438 81.453125 27.53125 80.917969 27.550781 C 80.867188 27.792969 81.058594 27.777344 81.160156 27.816406 C 82.269531 28.242188 83.425781 28.359375 84.59375 28.3125 C 85.347656 28.28125 86.097656 28.195312 86.84375 28.109375 C 87.113281 28.078125 87.398438 28.03125 87.636719 27.910156 C 88.316406 27.570312 89.042969 27.371094 89.757812 27.132812 C 90.476562 26.890625 91.117188 26.503906 91.59375 25.886719 C 91.734375 25.894531 91.792969 25.808594 91.804688 25.679688 Z M 92.011719 12.730469 C 92.019531 12.730469 92.023438 12.730469 92.03125 12.730469 C 92.023438 12.789062 92.019531 12.71875 92.011719 12.730469 Z M 92.140625 14.039062 C 92.242188 14.140625 92.339844 14.238281 92.4375 14.339844 L 92.460938 14.382812 L 92.441406 14.347656 C 92.335938 14.246094 92.230469 14.144531 92.121094 14.046875 C 91.988281 13.953125 91.855469 13.859375 91.722656 13.769531 L 91.699219 13.71875 L 91.714844 13.757812 C 91.855469 13.851562 91.996094 13.945312 92.140625 14.039062 Z M 93.320312 15.195312 C 93.4375 15.296875 93.550781 15.398438 93.664062 15.5 C 93.746094 15.640625 93.851562 15.746094 94.011719 15.789062 C 94.019531 15.824219 94.015625 15.867188 94.035156 15.890625 C 95.0625 17.09375 96.070312 18.316406 97.195312 19.429688 C 97.285156 19.519531 97.425781 19.5625 97.542969 19.628906 C 97.511719 19.761719 97.589844 19.835938 97.691406 19.890625 C 97.75 20.074219 97.894531 20.132812 98.058594 20.164062 L 98.066406 20.242188 L 98.039062 20.179688 C 97.976562 20.007812 97.835938 19.9375 97.671875 19.902344 C 97.695312 19.773438 97.628906 19.695312 97.523438 19.640625 C 97.347656 19.105469 96.90625 18.761719 96.570312 18.347656 C 96.078125 17.742188 95.566406 17.152344 95.035156 16.585938 C 94.742188 16.265625 94.457031 15.914062 94 15.804688 C 93.976562 15.589844 93.792969 15.574219 93.648438 15.511719 C 93.605469 15.332031 93.441406 15.285156 93.304688 15.207031 C 93.230469 15.042969 93.070312 14.996094 92.921875 14.933594 L 92.917969 14.882812 L 92.925781 14.917969 C 93.054688 15.007812 93.1875 15.101562 93.320312 15.195312 Z M 95.539062 19.535156 C 94.710938 18.71875 93.820312 17.96875 93.046875 17.097656 C 93.007812 17.050781 92.925781 17.039062 92.863281 17.011719 C 92.890625 16.894531 92.8125 16.839844 92.738281 16.777344 C 92.667969 16.714844 92.621094 16.710938 92.59375 16.78125 C 92.585938 16.804688 92.601562 16.851562 92.621094 16.867188 C 92.695312 16.921875 92.777344 16.96875 92.855469 17.019531 C 92.882812 17.382812 93.078125 17.679688 93.300781 17.929688 C 94.09375 18.835938 94.9375 19.695312 96.007812 20.285156 C 96.152344 20.367188 96.328125 20.398438 96.488281 20.453125 C 96.519531 20.5 96.550781 20.550781 96.585938 20.601562 C 96.679688 20.445312 96.507812 20.511719 96.46875 20.464844 C 96.257812 20.058594 95.851562 19.84375 95.539062 19.535156 Z M 96.871094 19.792969 C 95.757812 18.546875 94.640625 17.300781 93.5 16.078125 C 93.058594 15.605469 92.550781 15.195312 92.058594 14.773438 C 91.96875 14.691406 91.8125 14.6875 91.683594 14.648438 L 91.714844 14.59375 L 91.707031 14.636719 C 92.203125 15.726562 93.121094 16.480469 93.910156 17.324219 C 94.964844 18.445312 96.0625 19.53125 97.292969 20.46875 C 97.339844 20.488281 97.378906 20.511719 97.425781 20.535156 C 97.375 20.515625 97.328125 20.492188 97.277344 20.472656 C 97.292969 20.15625 97.042969 19.988281 96.871094 19.792969 Z M 81.054688 26.523438 C 81.714844 26.472656 82.324219 26.238281 82.917969 25.96875 C 83.394531 25.753906 83.878906 25.636719 84.398438 25.585938 C 85.800781 25.445312 87.1875 25.210938 88.554688 24.890625 C 89.125 24.757812 89.710938 24.769531 90.429688 24.609375 C 89.800781 24.472656 89.308594 24.511719 88.816406 24.535156 C 88.199219 24.566406 87.582031 24.578125 86.96875 24.625 C 86.59375 24.648438 86.21875 24.707031 85.847656 24.78125 C 85.242188 24.902344 84.636719 25.019531 84.042969 25.1875 C 82.980469 25.480469 81.980469 25.914062 81.066406 26.539062 Z M 79.101562 19.1875 C 79.082031 19.179688 79.066406 19.167969 79.046875 19.167969 C 79.019531 19.164062 78.988281 19.167969 78.957031 19.171875 C 77.039062 19.355469 75.191406 19.882812 73.324219 20.339844 C 72.960938 20.425781 72.589844 20.5 72.222656 20.582031 C 71.953125 20.640625 71.675781 20.667969 71.421875 20.761719 C 70.617188 21.050781 69.839844 21.410156 68.992188 21.648438 C 69.355469 21.644531 69.722656 21.660156 70.082031 21.636719 C 71.316406 21.550781 72.535156 21.382812 73.726562 21.023438 C 74.316406 20.84375 74.921875 20.710938 75.527344 20.59375 C 76.613281 20.386719 77.628906 19.984375 78.625 19.507812 C 78.777344 19.433594 78.933594 19.355469 78.945312 19.148438 C 78.996094 19.160156 79.046875 19.175781 79.101562 19.1875 Z M 70.296875 15.367188 C 70.386719 15.394531 70.429688 15.371094 70.40625 15.308594 C 70.402344 15.296875 70.34375 15.296875 70.3125 15.300781 C 70.25 15.308594 70.1875 15.324219 70.125 15.335938 C 68.039062 15.5 66.046875 15.082031 64.070312 14.449219 C 61.984375 13.78125 59.851562 13.265625 57.710938 12.800781 C 57.621094 12.785156 57.53125 12.796875 57.429688 12.828125 C 58.773438 13.148438 59.964844 13.847656 61.246094 14.320312 C 63.476562 15.140625 65.75 15.738281 68.148438 15.699219 C 68.660156 15.691406 69.175781 15.675781 69.675781 15.542969 C 69.835938 15.503906 70.019531 15.496094 70.109375 15.316406 C 70.171875 15.332031 70.234375 15.351562 70.296875 15.367188 Z M 81.425781 25.820312 L 81.464844 25.820312 C 82.050781 25.542969 82.640625 25.261719 83.230469 24.984375 C 83.292969 24.953125 83.355469 24.921875 83.421875 24.910156 C 84.730469 24.644531 86.003906 24.25 87.359375 24.179688 C 89.039062 24.097656 90.71875 24.144531 92.398438 24.125 C 92.460938 24.125 92.523438 24.085938 92.585938 24.066406 C 92.597656 23.878906 92.449219 23.847656 92.324219 23.808594 C 91.03125 23.402344 89.691406 23.367188 88.355469 23.289062 C 87.175781 23.21875 86.027344 23.402344 84.878906 23.621094 C 84.675781 23.660156 84.464844 23.695312 84.289062 23.792969 C 83.332031 24.332031 82.40625 24.925781 81.550781 25.621094 C 81.507812 25.660156 81.503906 25.746094 81.480469 25.808594 Z M 74.164062 9.179688 C 75.25 10.277344 76.328125 11.402344 77.679688 12.195312 C 78.953125 12.945312 80.257812 13.632812 81.605469 14.242188 C 81.695312 14.28125 81.800781 14.289062 82.050781 14.351562 C 81.296875 13.714844 80.675781 13.148438 80.007812 12.640625 C 79.054688 11.910156 78.070312 11.21875 77.097656 10.511719 C 76.902344 10.367188 76.6875 10.246094 76.53125 10.070312 C 75.808594 9.253906 74.855469 8.757812 73.984375 8.152344 C 73.695312 7.953125 73.382812 7.820312 73.050781 7.734375 C 73.011719 7.710938 72.976562 7.6875 72.9375 7.667969 C 72.953125 7.683594 72.964844 7.707031 72.984375 7.714844 C 73.007812 7.722656 73.039062 7.722656 73.0625 7.722656 C 73.320312 8.292969 73.75 8.757812 74.164062 9.179688 Z M 73.679688 14.71875 C 71.226562 14.207031 68.773438 13.726562 66.277344 13.449219 C 64.542969 13.257812 62.808594 13.035156 61.050781 12.820312 C 61.257812 13.09375 61.574219 13.039062 61.824219 13.144531 C 62.105469 13.261719 62.398438 13.378906 62.691406 13.464844 C 64.148438 13.867188 65.605469 14.269531 67.0625 14.65625 C 67.730469 14.835938 68.410156 14.90625 69.101562 14.902344 C 70.265625 14.894531 71.433594 14.910156 72.597656 14.890625 C 72.960938 14.882812 73.351562 14.976562 73.671875 14.699219 C 73.667969 14.707031 73.714844 14.691406 73.679688 14.71875 Z M 82.867188 11.472656 C 82.75 11.347656 82.601562 11.253906 82.488281 11.125 C 80.929688 9.386719 78.886719 8.414062 76.820312 7.472656 C 76.542969 7.347656 76.242188 7.257812 75.945312 7.179688 C 75.015625 6.945312 74.082031 6.726562 73.132812 6.554688 C 73.867188 7.058594 74.707031 7.304688 75.511719 7.625 C 76.757812 8.125 77.941406 8.734375 79.03125 9.523438 C 79.503906 9.867188 79.980469 10.203125 80.472656 10.515625 C 81.257812 11.015625 81.941406 11.648438 82.636719 12.257812 C 83.023438 12.601562 83.308594 13.03125 83.609375 13.453125 C 84.144531 14.214844 84.753906 14.917969 85.667969 15.242188 L 85.683594 15.296875 L 85.675781 15.257812 C 85.074219 13.75 83.925781 12.640625 82.867188 11.472656 Z M 67.285156 21.316406 C 68.527344 21.082031 69.792969 20.9375 70.980469 20.464844 C 71.234375 20.363281 71.492188 20.257812 71.761719 20.210938 C 73.386719 19.933594 74.96875 19.464844 76.570312 19.09375 C 77.167969 18.953125 77.789062 18.894531 78.398438 18.796875 C 78.828125 18.730469 79.269531 18.699219 79.722656 18.5 C 79.515625 18.242188 79.265625 18.253906 79.050781 18.226562 C 77.203125 17.988281 75.359375 18.011719 73.523438 18.355469 C 72.8125 18.488281 72.128906 18.714844 71.484375 19.050781 C 71.175781 19.207031 70.871094 19.378906 70.542969 19.464844 C 69.355469 19.78125 68.375 20.484375 67.382812 21.160156 C 67.335938 21.191406 67.324219 21.273438 67.296875 21.332031 C 67.292969 21.328125 67.289062 21.320312 67.285156 21.316406 Z M 56.851562 11.535156 L 56.878906 11.527344 C 58.960938 11.320312 61.042969 11.199219 63.128906 11.222656 C 65.328125 11.25 67.507812 11.476562 69.59375 12.246094 C 70.65625 12.632812 71.699219 13.070312 72.742188 13.511719 C 73.273438 13.738281 73.804688 13.945312 74.378906 14.144531 C 74.363281 14.007812 74.382812 13.917969 74.351562 13.894531 C 73.546875 13.246094 72.734375 12.617188 71.84375 12.09375 C 70.558594 11.34375 69.207031 10.785156 67.746094 10.488281 C 67.140625 10.367188 66.539062 10.238281 65.9375 10.101562 C 64.375 9.746094 62.789062 9.734375 61.242188 10.042969 C 59.742188 10.347656 58.242188 10.730469 56.894531 11.527344 Z M 64.367188 12.746094 C 66.78125 13.046875 69.207031 13.273438 71.585938 13.820312 C 71.851562 13.882812 72.121094 13.914062 72.515625 13.984375 C 68.453125 11.84375 63.996094 11.292969 58.449219 12.078125 C 60.421875 12.300781 62.398438 12.5 64.367188 12.746094 Z M 74.898438 8.1875 C 75.1875 8.375 75.503906 8.53125 75.75 8.761719 C 77.421875 10.355469 79.40625 11.542969 81.152344 13.042969 C 81.921875 13.707031 82.835938 14.203125 83.730469 14.726562 C 83.324219 13.910156 82.871094 13.144531 82.195312 12.53125 C 81.839844 12.207031 81.515625 11.839844 81.132812 11.558594 C 79.910156 10.671875 78.714844 9.75 77.375 9.042969 C 76.589844 8.628906 75.832031 8.152344 74.972656 7.882812 C 74.8125 7.835938 74.652344 7.78125 74.464844 7.722656 C 74.542969 7.988281 74.726562 8.078125 74.898438 8.1875 Z M 82.296875 27.171875 C 84.933594 26.980469 87.53125 26.550781 90.101562 25.960938 C 90.609375 25.84375 91.074219 25.621094 91.535156 25.402344 C 91.710938 25.316406 91.9375 25.296875 92.011719 25.066406 C 91.988281 25.039062 91.960938 24.992188 91.941406 24.992188 C 90.65625 25.160156 89.359375 25.199219 88.078125 25.472656 C 86.84375 25.738281 85.605469 26.023438 84.335938 26.097656 C 83.851562 26.128906 83.394531 26.242188 82.949219 26.445312 C 82.519531 26.640625 82.074219 26.792969 81.613281 26.96875 C 81.828125 27.25 82.078125 27.1875 82.296875 27.171875 Z M 82.296875 27.171875 " fill-opacity="1" fill-rule="nonzero"/></g><g fill="#ffffff" fill-opacity="1"><g transform="translate(63.192309, 38.411566)"><g><path d="M 0.109375 -5.203125 L 1.234375 -5.203125 L 2.375 -1.375 L 2.421875 -1.375 L 3.609375 -5.203125 L 4.5 -5.203125 L 5.6875 -1.375 L 5.734375 -1.375 L 6.921875 -5.203125 L 7.59375 -5.203125 L 5.984375 0 L 5.015625 0 L 3.875 -3.71875 L 3.828125 -3.71875 L 2.671875 0 L 1.703125 0 Z M 0.109375 -5.203125 "/></g></g></g><g fill="#ffffff" fill-opacity="1"><g transform="translate(72.222681, 38.411566)"><g><path d="M 0.5625 -5.203125 L 4.421875 -5.203125 L 4.3125 -4.578125 L 1.59375 -4.578125 L 1.59375 -3.015625 L 3.609375 -3.015625 L 3.5 -2.375 L 1.59375 -2.375 L 1.59375 -0.625 L 4.53125 -0.625 L 4.53125 0 L 0.5625 0 Z M 0.5625 -5.203125 "/></g></g></g><g fill="#ffffff" fill-opacity="1"><g transform="translate(78.275186, 38.411566)"><g><path d="M 0.5625 -5.203125 L 2.265625 -5.203125 C 2.703125 -5.203125 3.097656 -5.132812 3.453125 -5 C 3.816406 -4.863281 4.125 -4.675781 4.375 -4.4375 C 4.625 -4.207031 4.816406 -3.929688 4.953125 -3.609375 C 5.097656 -3.296875 5.171875 -2.960938 5.171875 -2.609375 C 5.171875 -2.242188 5.097656 -1.898438 4.953125 -1.578125 C 4.816406 -1.265625 4.625 -0.988281 4.375 -0.75 C 4.125 -0.519531 3.816406 -0.335938 3.453125 -0.203125 C 3.097656 -0.0664062 2.703125 0 2.265625 0 L 0.5625 0 Z M 2.265625 -0.625 C 2.515625 -0.625 2.75 -0.671875 2.96875 -0.765625 C 3.1875 -0.867188 3.375 -1.003906 3.53125 -1.171875 C 3.695312 -1.335938 3.820312 -1.539062 3.90625 -1.78125 C 4 -2.03125 4.046875 -2.304688 4.046875 -2.609375 C 4.046875 -2.898438 4 -3.164062 3.90625 -3.40625 C 3.820312 -3.65625 3.695312 -3.863281 3.53125 -4.03125 C 3.375 -4.207031 3.1875 -4.34375 2.96875 -4.4375 C 2.75 -4.53125 2.515625 -4.578125 2.265625 -4.578125 L 1.59375 -4.578125 L 1.59375 -0.625 Z M 2.265625 -0.625 "/></g></g></g><g fill="#ffffff" fill-opacity="1"><g transform="translate(85.07216, 38.411566)"><g><path d="M 0.5625 -5.203125 L 2.265625 -5.203125 C 2.703125 -5.203125 3.097656 -5.132812 3.453125 -5 C 3.816406 -4.863281 4.125 -4.675781 4.375 -4.4375 C 4.625 -4.207031 4.816406 -3.929688 4.953125 -3.609375 C 5.097656 -3.296875 5.171875 -2.960938 5.171875 -2.609375 C 5.171875 -2.242188 5.097656 -1.898438 4.953125 -1.578125 C 4.816406 -1.265625 4.625 -0.988281 4.375 -0.75 C 4.125 -0.519531 3.816406 -0.335938 3.453125 -0.203125 C 3.097656 -0.0664062 2.703125 0 2.265625 0 L 0.5625 0 Z M 2.265625 -0.625 C 2.515625 -0.625 2.75 -0.671875 2.96875 -0.765625 C 3.1875 -0.867188 3.375 -1.003906 3.53125 -1.171875 C 3.695312 -1.335938 3.820312 -1.539062 3.90625 -1.78125 C 4 -2.03125 4.046875 -2.304688 4.046875 -2.609375 C 4.046875 -2.898438 4 -3.164062 3.90625 -3.40625 C 3.820312 -3.65625 3.695312 -3.863281 3.53125 -4.03125 C 3.375 -4.207031 3.1875 -4.34375 2.96875 -4.4375 C 2.75 -4.53125 2.515625 -4.578125 2.265625 -4.578125 L 1.59375 -4.578125 L 1.59375 -0.625 Z M 2.265625 -0.625 "/></g></g></g><g fill="#ffffff" fill-opacity="1"><g transform="translate(91.869136, 38.411566)"><g><path d="M 0.5625 -5.203125 L 1.59375 -5.203125 L 1.59375 0 L 0.5625 0 Z M 0.5625 -5.203125 "/></g></g></g><g fill="#ffffff" fill-opacity="1"><g transform="translate(95.353232, 38.411566)"><g><path d="M 0.5625 -5.203125 L 1.484375 -5.203125 L 4.3125 -1.453125 L 4.34375 -1.453125 L 4.34375 -5.203125 L 5.015625 -5.203125 L 5.015625 0 L 4.09375 0 L 1.265625 -3.75 L 1.234375 -3.75 L 1.234375 0 L 0.5625 0 Z M 0.5625 -5.203125 "/></g></g></g><g fill="#ffffff" fill-opacity="1"><g transform="translate(102.261873, 38.411566)"><g><path d="M 3.125 0.15625 C 2.71875 0.15625 2.34375 0.0820312 2 -0.0625 C 1.65625 -0.207031 1.359375 -0.40625 1.109375 -0.65625 C 0.859375 -0.90625 0.660156 -1.195312 0.515625 -1.53125 C 0.367188 -1.863281 0.296875 -2.222656 0.296875 -2.609375 C 0.296875 -2.984375 0.367188 -3.335938 0.515625 -3.671875 C 0.660156 -4.015625 0.859375 -4.304688 1.109375 -4.546875 C 1.359375 -4.796875 1.65625 -4.992188 2 -5.140625 C 2.34375 -5.285156 2.71875 -5.359375 3.125 -5.359375 C 3.488281 -5.359375 3.804688 -5.300781 4.078125 -5.1875 C 4.347656 -5.070312 4.570312 -4.945312 4.75 -4.8125 C 4.957031 -4.65625 5.132812 -4.476562 5.28125 -4.28125 L 4.953125 -3.9375 C 4.816406 -4.09375 4.664062 -4.226562 4.5 -4.34375 C 4.351562 -4.445312 4.175781 -4.539062 3.96875 -4.625 C 3.769531 -4.71875 3.535156 -4.765625 3.265625 -4.765625 C 3.015625 -4.765625 2.773438 -4.710938 2.546875 -4.609375 C 2.328125 -4.503906 2.128906 -4.359375 1.953125 -4.171875 C 1.785156 -3.984375 1.648438 -3.753906 1.546875 -3.484375 C 1.453125 -3.222656 1.40625 -2.929688 1.40625 -2.609375 C 1.40625 -2.273438 1.453125 -1.972656 1.546875 -1.703125 C 1.648438 -1.441406 1.785156 -1.21875 1.953125 -1.03125 C 2.128906 -0.84375 2.328125 -0.695312 2.546875 -0.59375 C 2.773438 -0.5 3.015625 -0.453125 3.265625 -0.453125 C 3.441406 -0.453125 3.597656 -0.46875 3.734375 -0.5 C 3.867188 -0.539062 3.984375 -0.585938 4.078125 -0.640625 C 4.191406 -0.703125 4.296875 -0.773438 4.390625 -0.859375 L 4.390625 -2.1875 L 3.15625 -2.1875 L 3.15625 -2.828125 L 5.421875 -2.828125 L 5.421875 0 L 5.0625 0 L 4.875 -0.515625 L 4.828125 -0.515625 C 4.703125 -0.390625 4.550781 -0.28125 4.375 -0.1875 C 4.238281 -0.101562 4.0625 -0.0234375 3.84375 0.046875 C 3.632812 0.117188 3.394531 0.15625 3.125 0.15625 Z M 3.125 0.15625 "/></g></g></g><g fill="#ffffff" fill-opacity="1"><g transform="translate(33.999255, 40.244527)"><g><path d="M 14.71875 -23.855469 L 20.203125 -29.339844 C 22.6875 -31.824219 26.699219 -35.175781 29.492188 -35.175781 L 29.492188 -35.632812 L 21.371094 -35.632812 L 21.371094 -35.175781 C 24.464844 -35.175781 23.398438 -33.195312 20 -29.746094 L 6.292969 -16.089844 L 6.292969 -31.265625 C 6.292969 -34.617188 7.15625 -35.175781 7.511719 -35.175781 L 7.511719 -35.632812 L 1.523438 -35.632812 L 1.523438 -35.175781 C 1.828125 -35.175781 2.691406 -34.617188 2.691406 -31.265625 L 2.691406 -4.367188 C 2.691406 -1.066406 1.828125 -0.457031 1.523438 -0.457031 L 1.523438 0 L 7.511719 0 L 7.511719 -0.457031 C 7.15625 -0.457031 6.292969 -1.066406 6.292969 -4.367188 L 6.292969 -15.480469 L 12.03125 -21.167969 L 21.371094 -4.617188 C 23.347656 -1.167969 23.195312 -0.457031 22.6875 -0.457031 L 22.6875 0 L 29.035156 0 L 29.035156 -0.457031 C 28.425781 -0.457031 27.15625 -1.828125 25.023438 -5.53125 Z M 14.71875 -23.855469 "/></g></g></g></svg>