<svg xmlns="http://www.w3.org/2000/svg" xmlns:xlink="http://www.w3.org/1999/xlink" width="1640" zoomAndPan="magnify" viewBox="0 0 1230 693.000001" height="924" preserveAspectRatio="xMidYMid meet" version="1.0"><defs><g/><clipPath id="27a5c60edd"><path d="M 732 30 L 832 30 L 832 273 L 732 273 Z M 732 30 " clip-rule="nonzero"/></clipPath><clipPath id="8bfebc342c"><path d="M 663.816406 86.535156 L 758.144531 15.09375 L 900.125 202.558594 L 805.796875 274 Z M 663.816406 86.535156 " clip-rule="nonzero"/></clipPath><clipPath id="73d8be76e6"><path d="M 663.816406 86.535156 L 758.144531 15.09375 L 900.125 202.558594 L 805.796875 274 Z M 663.816406 86.535156 " clip-rule="nonzero"/></clipPath></defs><g fill="#2b2b2b" fill-opacity="1"><g transform="translate(167.113456, 421.989933)"><g><path d="M 219.589844 -214.398438 L 126.441406 -21.074219 L 33.289062 -214.398438 L 9.164062 -214.398438 L 20.769531 -190.273438 L 20.769531 -50.085938 C 20.769531 -21.683594 13.742188 -2.75 9.164062 -2.75 L 9.164062 0 L 35.121094 0 L 35.121094 -2.75 C 30.542969 -2.75 23.515625 -21.683594 23.515625 -50.085938 L 23.515625 -184.773438 L 112.390625 0 L 136.519531 0 L 127.96875 -18.019531 L 219.589844 -207.984375 L 219.589844 -26.265625 C 219.589844 -6.414062 214.398438 -2.75 212.566406 -2.75 L 212.566406 0 L 248.605469 0 L 248.605469 -2.75 C 246.773438 -2.75 241.582031 -6.414062 241.582031 -26.265625 L 241.582031 -188.132812 C 241.582031 -208.292969 246.773438 -211.652344 248.605469 -211.652344 L 248.605469 -214.398438 Z M 219.589844 -214.398438 "/></g></g></g><g fill="#2b2b2b" fill-opacity="1"><g transform="translate(424.881282, 421.989933)"><g><path d="M 16.1875 -80.628906 C 16.1875 -6.71875 80.019531 1.832031 97.730469 1.832031 C 115.140625 1.832031 171.640625 -3.96875 171.640625 -80.628906 L 171.640625 -164.617188 C 171.640625 -193.019531 178.667969 -211.652344 183.246094 -211.652344 L 183.246094 -214.398438 L 157.289062 -214.398438 L 157.289062 -211.652344 C 161.867188 -211.652344 168.894531 -193.019531 168.894531 -164.617188 L 168.894531 -80.628906 C 168.894531 -14.660156 125.828125 -1.832031 95.59375 -1.832031 C 33.59375 -1.832031 37.871094 -80.628906 37.871094 -80.628906 L 37.871094 -188.132812 C 37.871094 -208.292969 43.0625 -211.652344 44.894531 -211.652344 L 44.894531 -214.398438 L 9.164062 -214.398438 L 9.164062 -211.652344 C 10.996094 -211.652344 16.1875 -208.292969 16.1875 -188.132812 Z M 16.1875 -80.628906 "/></g></g></g><g fill="#2b2b2b" fill-opacity="1"><g transform="translate(617.290915, 421.989933)"><g><path d="M 97.121094 2.441406 C 130.105469 2.441406 158.507812 -19.242188 158.507812 -52.835938 C 158.507812 -87.347656 129.191406 -105.976562 97.425781 -117.277344 C 69.023438 -127.355469 37.871094 -146.292969 37.871094 -175.917969 C 37.871094 -205.542969 73.300781 -214.398438 86.738281 -214.398438 C 133.160156 -214.398438 148.125 -150.570312 148.125 -150.570312 L 150.875 -150.570312 L 158.203125 -177.445312 C 146.292969 -198.519531 128.273438 -217.148438 86.738281 -217.148438 C 53.445312 -217.148438 25.347656 -195.464844 25.347656 -161.867188 C 25.347656 -127.355469 54.667969 -108.726562 86.433594 -97.425781 C 114.53125 -87.347656 145.683594 -68.105469 145.683594 -38.480469 C 145.683594 -8.855469 110.558594 0 97.121094 0 C 50.699219 0 18.9375 -73.300781 18.9375 -73.300781 L 16.492188 -73.300781 L 9.164062 -46.117188 C 21.074219 -25.042969 55.585938 2.441406 97.121094 2.441406 Z M 97.121094 2.441406 "/></g></g></g><g fill="#2b2b2b" fill-opacity="1"><g transform="translate(784.962148, 421.989933)"><g><path d="M 45.199219 -214.398438 L 9.164062 -214.398438 L 9.164062 -211.652344 C 10.996094 -211.652344 16.1875 -208.292969 16.1875 -188.132812 L 16.1875 -26.265625 C 16.1875 -6.414062 10.996094 -2.75 9.164062 -2.75 L 9.164062 0 L 45.199219 0 L 45.199219 -2.75 C 43.0625 -2.75 37.871094 -6.414062 37.871094 -26.265625 L 37.871094 -188.132812 C 37.871094 -208.292969 43.0625 -211.652344 45.199219 -211.652344 Z M 45.199219 -214.398438 "/></g></g></g><g fill="#2b2b2b" fill-opacity="1"><g transform="translate(839.325519, 421.989933)"><g><path d="M 13.132812 -79.710938 C 41.535156 26.570312 194.851562 25.960938 214.398438 -73.300781 L 211.957031 -73.910156 C 193.9375 17.101562 62.304688 16.796875 34.816406 -85.515625 C 21.988281 -133.160156 37.871094 -196.074219 90.402344 -210.125 C 134.382812 -221.730469 171.640625 -189.050781 190.578125 -151.179688 L 193.328125 -151.179688 L 200.351562 -178.054688 C 174.085938 -208.902344 131.632812 -223.867188 89.792969 -212.566406 C 31.761719 -196.992188 -2.441406 -137.742188 13.132812 -79.710938 Z M 13.132812 -79.710938 "/></g></g></g><g clip-path="url(#27a5c60edd)"><g clip-path="url(#8bfebc342c)"><g clip-path="url(#73d8be76e6)"><path fill="#2b2b2b" d="M 779.882812 132.90625 C 776.929688 130.617188 773.773438 129.246094 770.820312 127.574219 C 767.78125 125.851562 764.644531 124.261719 762.003906 121.972656 C 759.371094 119.683594 756.84375 117.273438 753.964844 115.285156 C 751.082031 113.285156 748.554688 110.875 746.160156 108.335938 C 743.777344 105.8125 741.515625 103.167969 739.195312 100.566406 C 738.257812 100.957031 738.902344 101.511719 739.078125 101.886719 C 742.109375 108.292969 746.738281 113.449219 751.726562 118.390625 C 757.140625 123.75 764.703125 127.433594 772.269531 131.074219 C 772.890625 131.367188 773.605469 131.503906 773.964844 132.191406 C 771.71875 132.867188 769.855469 131.644531 768.023438 130.78125 C 764.101562 128.9375 760.296875 126.859375 756.453125 124.84375 C 755.714844 124.457031 755.003906 123.984375 754.367188 123.449219 C 750.3125 120.03125 746.324219 116.613281 742.765625 112.585938 C 737.472656 106.589844 734.976562 99.425781 732.648438 92.082031 C 732.609375 91.949219 732.589844 91.8125 732.5625 91.671875 C 732.292969 90.113281 733.148438 89.363281 734.792969 89.714844 C 736.613281 90.101562 738.191406 91 739.691406 92.035156 C 742.128906 93.726562 744.726562 95.015625 747.597656 95.816406 C 748.796875 96.148438 750.035156 96.589844 751.0625 97.269531 C 754.679688 99.667969 758.480469 101.742188 762.242188 103.894531 C 763.691406 104.722656 765.027344 105.78125 766.289062 106.878906 C 770.855469 110.855469 774.648438 115.519531 777.960938 120.550781 C 779.644531 123.105469 781.28125 125.757812 781.972656 128.816406 C 782.449219 130.949219 783.59375 132.648438 785.125 134.144531 C 787.527344 136.488281 789.78125 138.972656 791.851562 141.617188 C 792.105469 141.949219 792.421875 142.230469 792.859375 141.832031 C 792.910156 141.570312 793.058594 141.277344 792.992188 141.058594 C 789.609375 130.246094 786.101562 119.480469 781.558594 109.082031 C 780.875 107.519531 779.957031 106.15625 778.742188 104.957031 C 775.644531 101.925781 772.601562 98.851562 769.339844 95.984375 C 766.300781 93.3125 763.410156 90.449219 760.636719 87.5 C 757.949219 84.644531 755.652344 81.445312 753.808594 77.980469 C 749.257812 69.414062 745.953125 60.386719 743.859375 50.898438 C 742.59375 45.160156 740.707031 39.605469 738.210938 34.269531 C 737.765625 33.316406 736.429688 32.285156 737.25 31.324219 C 738.25 30.148438 739.546875 31.273438 740.625 31.785156 C 741.632812 32.265625 742.589844 32.859375 743.519531 33.484375 C 748.273438 36.6875 753.148438 39.691406 757.898438 42.90625 C 764.570312 47.425781 769.582031 53.328125 773.410156 60.222656 C 775.910156 64.730469 777.804688 69.582031 779.890625 74.316406 C 781.191406 77.277344 781.824219 80.4375 782.5 83.585938 C 783.746094 89.378906 783.753906 95.257812 783.585938 101.125 C 783.445312 105.96875 783.875 110.617188 786.300781 114.921875 C 786.636719 115.523438 786.824219 116.214844 787.074219 116.871094 C 791.628906 128.761719 795.433594 140.898438 798.929688 153.132812 C 799.0625 153.605469 799.078125 154.238281 799.894531 154.296875 C 801.351562 152.539062 801.207031 150.410156 801.019531 148.351562 C 800.585938 143.613281 799.828125 138.917969 798.515625 134.332031 C 796.515625 127.339844 794.910156 120.265625 793.648438 113.089844 C 791.957031 103.417969 792.363281 93.90625 795.015625 84.464844 C 795.277344 83.53125 795.386719 82.542969 795.445312 81.566406 C 795.738281 76.816406 795.910156 72.070312 794.523438 67.417969 C 794.320312 66.734375 793.722656 65.679688 794.832031 65.265625 C 795.773438 64.917969 796.304688 65.828125 796.816406 66.484375 C 797.328125 67.148438 797.828125 67.824219 798.277344 68.53125 C 799.773438 70.894531 801.273438 73.25 802.703125 75.652344 C 806.957031 82.792969 810.257812 90.320312 811.542969 98.597656 C 812.121094 102.328125 812.949219 106.078125 812.960938 109.816406 C 812.984375 118.230469 811.6875 126.523438 809.496094 134.660156 C 809.355469 135.199219 809.109375 135.714844 808.875 136.214844 C 806.277344 141.636719 804.195312 147.21875 802.976562 153.128906 C 802.546875 155.195312 802.21875 157.238281 802.292969 159.355469 C 802.476562 164.8125 802.949219 170.234375 804.007812 175.589844 C 806.816406 189.753906 808.414062 204.03125 808.246094 218.492188 C 808.210938 221.386719 808.429688 224.285156 808.910156 227.710938 C 809.699219 226.769531 809.898438 226.15625 810.070312 225.507812 C 811.144531 221.453125 812.265625 217.414062 813.953125 213.558594 C 814.707031 211.832031 814.6875 210.066406 814.488281 208.214844 C 813.632812 200.292969 812.921875 192.363281 812.070312 184.4375 C 811.558594 179.640625 811.90625 174.863281 813.1875 170.296875 C 814.5 165.601562 816.347656 161.027344 818.320312 156.554688 C 821.300781 149.796875 824.59375 143.175781 826.910156 136.140625 C 826.972656 135.953125 827.320312 135.75 827.53125 135.75 C 827.753906 135.746094 828.113281 135.9375 828.179688 136.125 C 828.402344 136.777344 828.59375 137.453125 828.675781 138.136719 C 828.960938 140.496094 829.121094 142.871094 829.464844 145.21875 C 830.734375 153.949219 831.289062 162.734375 831.710938 171.53125 C 831.894531 175.335938 831.332031 179.039062 830.042969 182.660156 C 827.925781 188.613281 825.339844 194.382812 822.246094 199.839844 C 817.777344 207.722656 815.253906 216.28125 812.472656 224.765625 C 811.992188 226.222656 811.570312 227.683594 810.992188 229.121094 C 809.886719 231.84375 809.054688 234.671875 809.300781 237.679688 C 810.066406 247.046875 809.507812 256.398438 808.863281 265.75 C 808.742188 267.5625 808.480469 269.363281 808.175781 271.152344 C 807.976562 272.328125 806.808594 272.925781 805.59375 272.585938 C 804.636719 272.316406 804.3125 271.585938 804.386719 270.660156 C 804.429688 270.101562 804.550781 269.550781 804.621094 269 C 805.957031 258.730469 806.695312 248.414062 806.792969 238.058594 C 806.835938 233.449219 806.8125 228.824219 806.507812 224.226562 C 806.097656 217.957031 805.445312 211.691406 805.398438 205.394531 C 805.386719 203.863281 805.164062 202.332031 805.035156 200.800781 C 804.976562 200.101562 804.863281 199.429688 804.414062 198.839844 C 803.136719 197.183594 801.914062 195.484375 800.605469 193.851562 C 799.0625 191.914062 797.078125 190.714844 794.566406 190.464844 C 791.746094 190.179688 789.148438 189.152344 786.550781 188.082031 C 784.355469 187.179688 782.128906 186.332031 779.859375 185.636719 C 777.550781 184.925781 775.460938 183.894531 773.546875 182.433594 C 772.105469 181.332031 770.640625 180.214844 769.039062 179.382812 C 766.882812 178.265625 765.070312 176.800781 763.488281 174.996094 C 761.828125 173.109375 760.113281 171.261719 758.496094 169.339844 C 754.167969 164.191406 751.558594 158.230469 750.242188 151.671875 C 749.953125 150.242188 750.207031 149.859375 751.621094 149.796875 C 756.53125 149.582031 761.417969 149.78125 766.082031 151.535156 C 768.960938 152.613281 771.796875 153.808594 774.628906 155.019531 C 775.515625 155.402344 776.410156 155.894531 777.132812 156.523438 C 780.71875 159.648438 784.308594 162.769531 787.007812 166.753906 C 790.855469 172.433594 794.609375 178.191406 796.640625 184.820312 C 797.820312 188.679688 800.601562 191.054688 803.503906 193.386719 C 804.214844 192.835938 804.03125 192.261719 803.960938 191.769531 C 802.449219 180.824219 800.6875 169.925781 798.152344 159.164062 C 797.480469 156.308594 796.640625 153.496094 795.816406 150.679688 C 795.585938 149.894531 795.285156 149.027344 794.75 148.445312 C 790.683594 144.027344 787.101562 139.160156 782.59375 135.140625 C 781.691406 134.339844 780.835938 134.015625 779.601562 134.046875 C 777.503906 134.105469 775.453125 133.710938 773.84375 132.148438 C 775.863281 131.46875 777.503906 133.300781 779.882812 132.90625 Z M 819.707031 199.101562 C 820.511719 197.851562 820.949219 196.53125 820.492188 195.042969 C 820.878906 194.738281 821.074219 194.351562 820.996094 193.851562 C 821.484375 193.660156 821.640625 193.304688 821.484375 192.808594 C 822.425781 191.953125 822.523438 190.949219 822.007812 189.839844 C 822.53125 189.621094 822.601562 189.21875 822.449219 188.726562 C 823.554688 187.5625 823.828125 186.1875 823.445312 184.660156 C 824.242188 183.769531 824.242188 182.761719 823.878906 181.703125 C 824.066406 181.316406 824.257812 180.925781 824.449219 180.539062 C 824.46875 179.933594 824.480469 179.328125 824.492188 178.722656 C 824.507812 179.34375 824.53125 179.957031 824.550781 180.570312 C 824.355469 180.960938 824.160156 181.347656 823.96875 181.734375 C 823.414062 182.640625 823.039062 183.582031 823.445312 184.660156 C 822.457031 185.875 822.253906 187.265625 822.527344 188.757812 C 822.023438 188.988281 821.929688 189.378906 822.085938 189.871094 C 821.296875 190.757812 821.140625 191.75 821.566406 192.839844 C 821.105469 193.046875 821.023438 193.433594 821.074219 193.882812 C 820.914062 194.28125 820.757812 194.675781 820.59375 195.070312 C 820.0625 196.375 819.25 197.617188 819.792969 199.128906 C 819.378906 199.375 819.234375 199.742188 819.328125 200.207031 L 819.242188 200.382812 L 819.3125 200.257812 C 819.445312 199.871094 819.578125 199.488281 819.707031 199.101562 Z M 825.183594 188.457031 C 825.332031 188.097656 825.480469 187.738281 825.628906 187.375 C 828.554688 181.863281 830.097656 176.039062 829.664062 169.761719 C 829.476562 167.128906 829.347656 164.496094 829.230469 161.859375 C 829.183594 160.738281 829.035156 159.648438 828.527344 158.632812 C 828.609375 158.40625 828.699219 158.179688 828.78125 157.953125 C 828.042969 158.023438 828.679688 158.429688 828.605469 158.664062 C 827.847656 160.765625 827.773438 162.980469 827.621094 165.167969 C 827.15625 171.941406 826.691406 178.707031 825.511719 185.402344 C 825.390625 186.089844 825.304688 186.773438 825.71875 187.40625 C 825.359375 187.683594 825.15625 188.015625 825.269531 188.488281 C 825.101562 188.863281 824.929688 189.246094 824.761719 189.621094 L 824.652344 189.816406 L 824.753906 189.683594 C 824.902344 189.277344 825.046875 188.867188 825.183594 188.457031 Z M 788.914062 187.023438 C 789.023438 187.195312 788.835938 187.273438 788.742188 187.023438 C 788.746094 187.023438 788.617188 186.945312 788.617188 186.945312 L 788.746094 187.054688 C 789.285156 186.925781 788.628906 186.550781 788.914062 187.023438 Z M 786.308594 185.4375 L 786.246094 185.242188 C 785.863281 185.144531 785.476562 185.0625 785.089844 184.976562 C 784.917969 184.757812 784.796875 184.457031 784.570312 184.332031 C 778.425781 180.855469 773.570312 175.847656 768.5625 170.988281 C 764.757812 167.296875 761.019531 163.550781 757.621094 159.480469 C 756.214844 157.792969 754.855469 156.066406 753.480469 154.375 C 752.570312 154.789062 753.089844 155.378906 753.21875 155.8125 C 754.5625 160.449219 757.035156 164.484375 760.0625 168.171875 C 762.003906 170.535156 764.140625 172.757812 766.25 174.976562 C 767.011719 175.777344 767.863281 176.585938 768.835938 177.066406 C 771.609375 178.4375 774.03125 180.3125 776.5625 182.042969 C 779.109375 183.785156 781.929688 184.917969 785.089844 184.953125 C 785.417969 185.441406 785.832031 185.429688 786.28125 185.144531 Z M 828.542969 154.195312 C 828.558594 154.214844 828.570312 154.234375 828.582031 154.25 C 828.386719 154.371094 828.59375 154.1875 828.542969 154.195312 Z M 824.632812 157.800781 C 824.558594 158.371094 824.480469 158.9375 824.398438 159.5 L 824.316406 159.691406 L 824.386719 159.539062 C 824.445312 158.945312 824.507812 158.351562 824.566406 157.753906 C 824.539062 157.101562 824.511719 156.445312 824.484375 155.792969 L 824.582031 155.597656 L 824.496094 155.738281 C 824.542969 156.425781 824.585938 157.109375 824.632812 157.800781 Z M 823.8125 164.464844 C 823.769531 165.082031 823.71875 165.699219 823.675781 166.316406 C 823.417969 166.921875 823.339844 167.535156 823.59375 168.160156 C 823.503906 168.265625 823.347656 168.355469 823.320312 168.472656 C 821.964844 174.75 820.507812 181 819.679688 187.371094 C 819.609375 187.894531 819.8125 188.449219 819.886719 188.992188 C 819.390625 189.222656 819.34375 189.644531 819.414062 190.117188 C 818.96875 190.742188 819.128906 191.363281 819.4375 191.980469 L 819.207031 192.179688 L 819.34375 191.945312 C 819.738281 191.320312 819.617188 190.703125 819.332031 190.082031 C 819.804688 189.84375 819.894531 189.4375 819.808594 188.964844 C 821.097656 187.074219 821.125 184.808594 821.632812 182.699219 C 822.371094 179.625 823.019531 176.527344 823.546875 173.414062 C 823.84375 171.683594 824.289062 169.894531 823.515625 168.144531 C 824.152344 167.546875 823.753906 166.917969 823.585938 166.292969 C 824.070312 165.710938 823.8125 165.070312 823.730469 164.4375 C 824.082031 163.789062 823.84375 163.164062 823.675781 162.53125 L 823.828125 162.390625 L 823.734375 162.492188 C 823.753906 163.140625 823.785156 163.800781 823.8125 164.464844 Z M 815.269531 182.257812 C 815.867188 177.578125 816.105469 172.855469 817.011719 168.214844 C 817.058594 167.964844 816.898438 167.683594 816.828125 167.417969 C 817.269531 167.210938 817.25 166.820312 817.277344 166.421875 C 817.304688 166.050781 817.203125 165.878906 816.90625 165.96875 C 816.8125 166 816.695312 166.164062 816.695312 166.269531 C 816.703125 166.648438 816.753906 167.027344 816.785156 167.402344 C 815.671875 168.375 815.203125 169.730469 814.933594 171.070312 C 813.96875 175.867188 813.277344 180.699219 814.003906 185.605469 C 814.101562 186.277344 814.425781 186.917969 814.648438 187.578125 C 814.566406 187.800781 814.484375 188.027344 814.402344 188.253906 C 815.140625 188.179688 814.511719 187.785156 814.566406 187.546875 C 815.351562 185.859375 815.046875 184.019531 815.269531 182.257812 Z M 817.710938 187.210938 C 818.996094 180.546875 820.273438 173.882812 821.40625 167.191406 C 821.84375 164.605469 821.917969 161.953125 822.074219 159.328125 C 822.105469 158.835938 821.738281 158.320312 821.550781 157.8125 L 821.800781 157.777344 L 821.648438 157.847656 C 819.355469 162.128906 819.179688 166.941406 818.402344 171.566406 C 817.371094 177.734375 816.570312 183.953125 816.582031 190.230469 C 816.613281 190.429688 816.648438 190.621094 816.679688 190.820312 C 816.628906 190.613281 816.574219 190.402344 816.523438 190.191406 C 817.578125 189.464844 817.507812 188.246094 817.710938 187.210938 Z M 757.128906 152.3125 C 758.910156 154.332031 761.167969 155.734375 763.492188 157 C 765.363281 158.015625 766.929688 159.316406 768.371094 160.875 C 772.261719 165.082031 776.433594 169.007812 780.828125 172.667969 C 782.664062 174.195312 784.070312 176.121094 786.347656 178.058594 C 785.242188 175.679688 783.90625 174.179688 782.621094 172.648438 C 781.003906 170.722656 779.445312 168.75 777.789062 166.859375 C 776.78125 165.707031 775.679688 164.625 774.53125 163.609375 C 772.65625 161.9375 770.773438 160.257812 768.78125 158.734375 C 765.226562 156.015625 761.363281 153.820312 757.105469 152.382812 Z M 775.984375 128.042969 C 775.960938 127.96875 775.953125 127.882812 775.914062 127.824219 C 775.851562 127.722656 775.765625 127.636719 775.683594 127.546875 C 770.363281 121.765625 764.125 117.046875 758.070312 112.113281 C 756.878906 111.140625 755.734375 110.117188 754.570312 109.125 C 753.726562 108.398438 752.945312 107.5625 752.019531 106.960938 C 749.109375 105.0625 746.039062 103.410156 743.1875 101.238281 C 744.097656 102.414062 744.941406 103.640625 745.917969 104.757812 C 749.222656 108.546875 752.761719 112.101562 756.847656 115.085938 C 758.871094 116.566406 760.792969 118.199219 762.652344 119.878906 C 765.996094 122.90625 769.792969 125.222656 773.769531 127.285156 C 774.382812 127.601562 775.023438 127.921875 775.714844 127.449219 C 775.804688 127.644531 775.890625 127.847656 775.984375 128.042969 Z M 766.648438 90.144531 C 766.785156 90.503906 766.960938 90.589844 767.109375 90.347656 C 767.140625 90.300781 767 90.117188 766.910156 90.03125 C 766.730469 89.847656 766.519531 89.679688 766.332031 89.507812 C 760.675781 83.136719 757.109375 75.644531 754.300781 67.691406 C 751.332031 59.277344 747.746094 51.105469 743.976562 43.019531 C 743.820312 42.691406 743.554688 42.414062 743.210938 42.171875 C 745.46875 47.316406 746.140625 52.890625 747.773438 58.195312 C 750.617188 67.445312 754.273438 76.285156 760.304688 83.972656 C 761.589844 85.617188 762.90625 87.253906 764.554688 88.558594 C 765.078125 88.972656 765.554688 89.558594 766.359375 89.410156 C 766.453125 89.652344 766.558594 89.898438 766.648438 90.144531 Z M 760.300781 151.796875 L 760.398438 151.917969 C 762.742188 153.148438 765.09375 154.375 767.441406 155.609375 C 767.691406 155.738281 767.949219 155.863281 768.152344 156.046875 C 772.214844 159.648438 776.632812 162.820312 780.179688 167.050781 C 784.582031 172.304688 788.550781 177.871094 792.742188 183.277344 C 792.902344 183.476562 793.179688 183.585938 793.402344 183.742188 C 794.023438 183.316406 793.773438 182.761719 793.589844 182.257812 C 791.714844 177.066406 788.53125 172.628906 785.5 168.101562 C 782.832031 164.113281 779.414062 160.824219 775.886719 157.636719 C 775.265625 157.074219 774.621094 156.464844 773.875 156.140625 C 769.785156 154.347656 765.601562 152.789062 761.253906 151.714844 C 761.027344 151.660156 760.734375 151.863281 760.46875 151.945312 Z M 796.117188 87.585938 C 795.234375 93.789062 794.265625 100.039062 795.027344 106.351562 C 795.742188 112.320312 796.726562 118.242188 798.085938 124.097656 C 798.175781 124.488281 798.402344 124.851562 798.828125 125.8125 C 799.023438 121.808594 799.316406 118.410156 799.320312 115.011719 C 799.328125 110.125 799.132812 105.242188 799.035156 100.355469 C 799.015625 99.378906 798.875 98.371094 799.058594 97.433594 C 799.90625 93.101562 799.179688 88.796875 798.980469 84.488281 C 798.914062 83.058594 798.582031 81.726562 798.03125 80.433594 C 798.011719 80.261719 797.996094 80.082031 797.972656 79.90625 C 797.960938 80 797.921875 80.09375 797.941406 80.175781 C 797.96875 80.273438 798.042969 80.363281 798.101562 80.457031 C 796.894531 82.675781 796.457031 85.203125 796.117188 87.585938 Z M 777.070312 99.539062 C 772.679688 90.332031 768.191406 81.183594 762.953125 72.414062 C 759.300781 66.308594 755.765625 60.132812 752.125 53.90625 C 751.757812 55.253906 752.707031 56.144531 752.984375 57.207031 C 753.300781 58.417969 753.632812 59.644531 754.097656 60.804688 C 756.363281 66.519531 758.652344 72.226562 760.988281 77.910156 C 762.050781 80.507812 763.5 82.894531 765.207031 85.125 C 768.097656 88.890625 770.917969 92.703125 773.851562 96.441406 C 774.757812 97.601562 775.417969 99.109375 777.097656 99.464844 C 777.066406 99.476562 777.230469 99.582031 777.070312 99.539062 Z M 810.109375 121.433594 C 810.230469 120.753906 810.171875 120.035156 810.300781 119.351562 C 812.082031 110.046875 810.1875 101.039062 808.144531 92.046875 C 807.871094 90.828125 807.425781 89.636719 806.933594 88.484375 C 805.410156 84.894531 803.820312 81.332031 802.039062 77.832031 C 802.210938 81.4375 803.496094 84.765625 804.433594 88.164062 C 805.882812 93.421875 806.832031 98.753906 806.960938 104.222656 C 807.019531 106.589844 807.109375 108.964844 807.304688 111.324219 C 807.628906 115.097656 807.273438 118.851562 807.011719 122.601562 C 806.867188 124.695312 806.175781 126.675781 805.546875 128.683594 C 804.417969 132.28125 803.644531 135.964844 804.839844 139.738281 L 804.710938 139.917969 L 804.8125 139.804688 C 808.199219 134.152344 808.949219 127.734375 810.109375 121.433594 Z M 740.058594 94.886719 C 743.871094 98.355469 747.441406 102.105469 751.890625 104.808594 C 752.84375 105.390625 753.824219 105.96875 754.628906 106.726562 C 759.523438 111.320312 764.917969 115.316406 770.0625 119.605469 C 771.984375 121.210938 773.695312 123.074219 775.503906 124.808594 C 776.78125 126.039062 777.960938 127.398438 779.722656 128.386719 C 780.046875 127.082031 779.390625 126.300781 778.957031 125.542969 C 775.179688 118.960938 770.570312 113.03125 764.953125 107.90625 C 762.769531 105.921875 760.359375 104.269531 757.695312 102.980469 C 756.4375 102.371094 755.121094 101.804688 754.039062 100.953125 C 750.101562 97.855469 745.433594 96.402344 740.808594 94.820312 C 740.59375 94.746094 740.292969 94.914062 740.039062 94.972656 C 740.046875 94.945312 740.050781 94.914062 740.058594 94.886719 Z M 745.949219 37.136719 L 746.046875 37.214844 C 751.824219 43.453125 757.335938 49.917969 762.386719 56.757812 C 767.710938 63.964844 772.339844 71.589844 774.992188 80.234375 C 776.34375 84.628906 777.503906 89.082031 778.640625 93.539062 C 779.222656 95.820312 779.863281 98.058594 780.621094 100.40625 C 781.03125 100.027344 781.363281 99.863281 781.367188 99.695312 C 781.480469 95.515625 781.519531 91.339844 781.007812 87.171875 C 780.269531 81.167969 778.75 75.40625 776.113281 69.945312 C 775.019531 67.683594 773.945312 65.414062 772.90625 63.128906 C 770.222656 57.1875 766.355469 52.007812 761.554688 47.75 C 756.894531 43.621094 751.960938 39.683594 746.078125 37.261719 Z M 760.53125 64.496094 C 765.492188 73.066406 770.730469 81.492188 774.808594 90.554688 C 775.261719 91.558594 775.820312 92.519531 776.570312 93.96875 C 773.46875 75.550781 764.300781 59.734375 748.128906 43.652344 C 752.265625 50.59375 756.480469 57.492188 760.53125 64.496094 Z M 801.109375 87.546875 C 801.21875 88.933594 801.503906 90.351562 801.351562 91.710938 C 800.332031 101.023438 801.382812 110.371094 800.828125 119.699219 C 800.582031 123.824219 801.234375 128.003906 801.742188 132.1875 C 803.378906 128.875 804.742188 125.527344 805.058594 121.839844 C 805.226562 119.894531 805.617188 117.945312 805.570312 116.011719 C 805.425781 109.886719 805.464844 103.742188 804.449219 97.675781 C 803.847656 94.109375 803.527344 90.480469 802.28125 87.046875 C 802.042969 86.402344 801.816406 85.757812 801.546875 85.007812 C 800.886719 85.898438 801.046875 86.722656 801.109375 87.546875 Z M 758.089844 157.929688 C 765.191406 166.003906 772.957031 173.390625 781.1875 180.304688 C 782.804688 181.667969 784.667969 182.617188 786.515625 183.589844 C 787.210938 183.957031 787.839844 184.644531 788.765625 184.320312 C 788.789062 184.175781 788.878906 183.964844 788.824219 183.90625 C 785.128906 180.140625 781.8125 176.035156 777.777344 172.542969 C 773.898438 169.183594 769.929688 165.847656 766.5625 161.917969 C 765.277344 160.414062 763.785156 159.214844 762.039062 158.265625 C 760.351562 157.355469 758.761719 156.265625 757.058594 155.214844 C 756.683594 156.582031 757.5 157.253906 758.089844 157.929688 Z M 758.089844 157.929688 " fill-opacity="1" fill-rule="nonzero"/></g></g></g></svg>