<svg xmlns="http://www.w3.org/2000/svg" xmlns:xlink="http://www.w3.org/1999/xlink" width="1640" zoomAndPan="magnify" viewBox="0 0 1230 693.000001" height="924" preserveAspectRatio="xMidYMid meet" version="1.0"><defs><g/><clipPath id="da785273db"><path d="M 327 318 L 431 318 L 431 351 L 327 351 Z M 327 318 " clip-rule="nonzero"/></clipPath><clipPath id="8b080355a6"><path d="M 419.273438 294.574219 L 433.242188 341.207031 L 341.410156 368.710938 L 327.441406 322.078125 Z M 419.273438 294.574219 " clip-rule="nonzero"/></clipPath><clipPath id="15176eb4c3"><path d="M 419.273438 294.574219 L 433.242188 341.207031 L 341.410156 368.710938 L 327.441406 322.078125 Z M 419.273438 294.574219 " clip-rule="nonzero"/></clipPath></defs><g fill="#2b2b2b" fill-opacity="1"><g transform="translate(26.389136, 387.535556)"><g><path d="M 24.835938 -1.511719 C 23.660156 -1.511719 20.808594 -3.523438 20.808594 -14.433594 L 20.808594 -64.105469 L 37.757812 -64.105469 C 71.65625 -64.105469 83.40625 -75.683594 83.40625 -91.796875 C 83.40625 -108.074219 71.65625 -119.652344 37.757812 -119.652344 C 28.023438 -119.652344 16.445312 -117.972656 6.542969 -117.804688 L 5.035156 -117.804688 L 5.035156 -116.296875 C 6.042969 -116.296875 8.894531 -114.449219 8.894531 -103.375 L 8.894531 -14.433594 C 8.894531 -3.523438 6.042969 -1.511719 5.035156 -1.511719 L 5.035156 0 L 24.835938 0 Z M 20.808594 -65.617188 L 20.808594 -117.304688 C 26.683594 -117.804688 32.386719 -118.308594 37.757812 -118.308594 C 52.191406 -118.308594 71.65625 -112.605469 71.65625 -91.796875 C 71.65625 -71.152344 52.191406 -65.449219 37.757812 -65.449219 L 37.757812 -65.617188 Z M 20.808594 -65.617188 "/></g></g></g><g fill="#2b2b2b" fill-opacity="1"><g transform="translate(114.827746, 387.535556)"><g><path d="M 53.03125 -64.945312 C 75.179688 -68.132812 83.238281 -78.371094 83.238281 -91.796875 C 83.238281 -108.074219 71.65625 -119.652344 37.589844 -119.652344 C 27.855469 -119.652344 16.445312 -117.972656 6.542969 -117.804688 L 5.035156 -117.804688 L 5.035156 -116.296875 C 6.042969 -116.296875 8.894531 -114.449219 8.894531 -103.375 L 8.894531 -14.433594 C 8.894531 -3.523438 6.042969 -1.511719 5.035156 -1.511719 L 5.035156 0 L 24.667969 0 L 24.667969 -1.511719 C 23.660156 -1.511719 20.808594 -3.523438 20.808594 -14.433594 L 20.808594 -64.105469 L 39.773438 -64.105469 L 65.28125 -19.96875 C 71.488281 -9.230469 74.007812 -1.511719 72.664062 -1.511719 L 72.664062 0 L 92.296875 0 L 92.296875 -1.511719 C 89.78125 -1.511719 84.242188 -11.074219 76.859375 -23.660156 Z M 20.808594 -117.304688 C 26.683594 -117.804688 32.386719 -118.308594 37.589844 -118.308594 C 52.191406 -118.308594 71.488281 -112.605469 71.488281 -91.796875 C 71.488281 -71.152344 52.191406 -65.449219 37.589844 -65.449219 L 20.808594 -65.449219 Z M 20.808594 -117.304688 "/></g></g></g><g fill="#2b2b2b" fill-opacity="1"><g transform="translate(212.160568, 387.535556)"><g><path d="M 7.214844 -43.632812 C 22.824219 14.769531 107.066406 14.433594 117.972656 -40.109375 L 116.464844 -40.445312 C 106.5625 9.566406 34.234375 9.398438 19.132812 -46.820312 C 17.453125 -52.863281 16.78125 -59.238281 16.78125 -65.617188 L 20.304688 -65.617188 C 47.15625 -65.617188 76.523438 -59.238281 76.523438 -59.238281 L 78.035156 -59.238281 L 78.035156 -73.503906 L 76.523438 -73.503906 C 76.523438 -73.503906 47.15625 -67.125 20.304688 -67.125 L 16.949219 -67.125 C 17.621094 -88.269531 28.023438 -109.414062 49.671875 -115.289062 C 74.007812 -121.667969 94.3125 -103.710938 104.71875 -82.902344 L 106.226562 -82.902344 L 110.253906 -97.667969 C 95.824219 -114.617188 72.328125 -122.839844 49.335938 -116.632812 C 17.621094 -108.074219 -1.34375 -75.515625 7.214844 -43.632812 Z M 7.214844 -43.632812 "/></g></g></g><g fill="#2b2b2b" fill-opacity="1"><g transform="translate(335.162297, 387.535556)"><g/></g></g><g fill="#2b2b2b" fill-opacity="1"><g transform="translate(372.585085, 387.535556)"><g/></g></g><g fill="#2b2b2b" fill-opacity="1"><g transform="translate(410.003525, 387.535556)"><g><path d="M 153.046875 -116.296875 C 157.410156 -116.296875 157.578125 -109.917969 153.214844 -97.164062 L 124.015625 -11.578125 L 93.808594 -99.851562 C 90.789062 -109.082031 90.621094 -116.296875 91.796875 -116.296875 L 91.796875 -117.804688 L 72.160156 -117.804688 L 72.160156 -116.296875 C 74.679688 -116.296875 78.875 -106.058594 83.238281 -93.304688 L 84.074219 -90.957031 L 56.890625 -11.578125 L 26.683594 -99.851562 C 23.828125 -109.082031 23.496094 -116.296875 24.667969 -116.296875 L 24.667969 -117.804688 L 5.035156 -117.804688 L 5.035156 -116.296875 C 7.550781 -116.296875 11.914062 -106.058594 16.277344 -93.304688 L 48.164062 0 L 60.917969 0 L 57.730469 -9.230469 L 84.914062 -88.605469 L 115.289062 0 L 127.875 0 L 124.855469 -9.230469 L 154.726562 -96.660156 C 159.929688 -111.765625 164.792969 -116.296875 167.3125 -116.296875 L 167.3125 -117.804688 L 153.046875 -117.804688 Z M 153.046875 -116.296875 "/></g></g></g><g fill="#2b2b2b" fill-opacity="1"><g transform="translate(582.349769, 387.535556)"><g><path d="M 7.214844 -43.632812 C 22.824219 14.769531 107.066406 14.433594 117.972656 -40.109375 L 116.464844 -40.445312 C 106.5625 9.566406 34.234375 9.398438 19.132812 -46.820312 C 17.453125 -52.863281 16.78125 -59.238281 16.78125 -65.617188 L 20.304688 -65.617188 C 47.15625 -65.617188 76.523438 -59.238281 76.523438 -59.238281 L 78.035156 -59.238281 L 78.035156 -73.503906 L 76.523438 -73.503906 C 76.523438 -73.503906 47.15625 -67.125 20.304688 -67.125 L 16.949219 -67.125 C 17.621094 -88.269531 28.023438 -109.414062 49.671875 -115.289062 C 74.007812 -121.667969 94.3125 -103.710938 104.71875 -82.902344 L 106.226562 -82.902344 L 110.253906 -97.667969 C 95.824219 -114.617188 72.328125 -122.839844 49.335938 -116.632812 C 17.621094 -108.074219 -1.34375 -75.515625 7.214844 -43.632812 Z M 7.214844 -43.632812 "/></g></g></g><g fill="#2b2b2b" fill-opacity="1"><g transform="translate(705.358336, 387.535556)"><g><path d="M 5.035156 -116.296875 C 6.042969 -116.296875 8.894531 -114.449219 8.894531 -103.375 L 8.894531 -14.433594 C 8.894531 -3.523438 6.042969 -1.511719 5.035156 -1.511719 L 5.035156 0 L 6.542969 0 C 16.445312 0.167969 27.1875 1.847656 36.917969 1.847656 C 76.691406 1.847656 106.730469 -15.4375 106.730469 -58.902344 C 106.730469 -125.359375 32.21875 -133.917969 20.808594 -100.019531 L 20.808594 -117.804688 L 5.035156 -117.804688 Z M 94.984375 -58.902344 C 94.984375 -22.152344 73.503906 0.335938 36.917969 0.335938 C 31.71875 0.335938 26.347656 -0.167969 20.808594 -0.671875 L 20.808594 -90.621094 C 20.808594 -130.226562 94.984375 -128.378906 94.984375 -58.902344 Z M 94.984375 -58.902344 "/></g></g></g><g fill="#2b2b2b" fill-opacity="1"><g transform="translate(817.123303, 387.535556)"><g><path d="M 5.035156 -116.296875 C 6.042969 -116.296875 8.894531 -114.449219 8.894531 -103.375 L 8.894531 -14.433594 C 8.894531 -3.523438 6.042969 -1.511719 5.035156 -1.511719 L 5.035156 0 L 6.542969 0 C 16.445312 0.167969 27.1875 1.847656 36.917969 1.847656 C 76.691406 1.847656 106.730469 -15.4375 106.730469 -58.902344 C 106.730469 -125.359375 32.21875 -133.917969 20.808594 -100.019531 L 20.808594 -117.804688 L 5.035156 -117.804688 Z M 94.984375 -58.902344 C 94.984375 -22.152344 73.503906 0.335938 36.917969 0.335938 C 31.71875 0.335938 26.347656 -0.167969 20.808594 -0.671875 L 20.808594 -90.621094 C 20.808594 -130.226562 94.984375 -128.378906 94.984375 -58.902344 Z M 94.984375 -58.902344 "/></g></g></g><g fill="#2b2b2b" fill-opacity="1"><g transform="translate(928.88827, 387.535556)"><g><path d="M 24.835938 -117.804688 L 5.035156 -117.804688 L 5.035156 -116.296875 C 6.042969 -116.296875 8.894531 -114.449219 8.894531 -103.375 L 8.894531 -14.433594 C 8.894531 -3.523438 6.042969 -1.511719 5.035156 -1.511719 L 5.035156 0 L 24.835938 0 L 24.835938 -1.511719 C 23.660156 -1.511719 20.808594 -3.523438 20.808594 -14.433594 L 20.808594 -103.375 C 20.808594 -114.449219 23.660156 -116.296875 24.835938 -116.296875 Z M 24.835938 -117.804688 "/></g></g></g><g fill="#2b2b2b" fill-opacity="1"><g transform="translate(958.759383, 387.535556)"><g><path d="M 100.019531 -90.453125 C 100.019531 -106.058594 103.878906 -116.296875 106.394531 -116.296875 L 106.394531 -117.804688 L 92.128906 -117.804688 L 92.128906 -116.296875 C 94.648438 -116.296875 98.507812 -106.058594 98.507812 -90.453125 L 98.507812 -18.460938 L 20.304688 -117.804688 L 5.035156 -117.804688 L 16.109375 -103.710938 L 16.109375 -27.523438 C 16.109375 -11.914062 12.25 -1.511719 9.734375 -1.511719 L 9.734375 0 L 23.996094 0 L 23.996094 -1.511719 C 21.480469 -1.511719 17.621094 -11.914062 17.621094 -27.523438 L 17.621094 -101.863281 L 97.835938 0 L 113.109375 0 L 100.019531 -16.613281 Z M 100.019531 -90.453125 "/></g></g></g><g fill="#2b2b2b" fill-opacity="1"><g transform="translate(1076.90132, 387.535556)"><g><path d="M 105.890625 -38.429688 C 105.722656 -25.84375 103.207031 -9.230469 80.382812 -4.363281 C 56.21875 0 27.855469 -13.761719 18.964844 -46.652344 C 12.082031 -72.832031 20.808594 -107.402344 49.671875 -115.121094 C 73.839844 -121.5 94.144531 -103.542969 104.550781 -82.734375 L 106.058594 -82.734375 L 110.085938 -97.5 C 95.65625 -114.449219 72.160156 -122.671875 49.335938 -116.464844 C 17.453125 -107.90625 -1.34375 -75.347656 7.214844 -43.464844 C 22.824219 14.9375 105.722656 14.433594 117.804688 -39.941406 C 118.980469 -45.308594 118.308594 -54.539062 121.667969 -54.539062 L 121.667969 -56.050781 L 77.195312 -56.050781 L 77.195312 -54.539062 L 87.933594 -54.539062 C 96.492188 -54.539062 105.722656 -53.03125 105.890625 -38.429688 Z M 105.890625 -38.429688 "/></g></g></g><g clip-path="url(#da785273db)"><g clip-path="url(#8b080355a6)"><g clip-path="url(#15176eb4c3)"><path fill="#2b2b2b" d="M 385.089844 332.523438 C 386.386719 331.71875 387.355469 330.703125 388.414062 329.808594 C 389.503906 328.890625 390.554688 327.914062 391.808594 327.226562 C 393.054688 326.546875 394.335938 325.921875 395.503906 325.101562 C 396.675781 324.28125 397.957031 323.65625 399.265625 323.105469 C 400.570312 322.550781 401.902344 322.066406 403.226562 321.546875 C 403.210938 321.132812 402.90625 321.296875 402.738281 321.3125 C 399.859375 321.550781 397.230469 322.585938 394.632812 323.789062 C 391.816406 325.097656 389.335938 327.476562 386.871094 329.859375 C 386.667969 330.054688 386.515625 330.3125 386.203125 330.351562 C 386.261719 329.386719 386.996094 328.847656 387.582031 328.269531 C 388.84375 327.027344 390.179688 325.863281 391.492188 324.675781 C 391.746094 324.449219 392.027344 324.242188 392.324219 324.074219 C 394.203125 323.011719 396.078125 321.96875 398.121094 321.183594 C 401.167969 320.015625 404.261719 320.089844 407.398438 320.257812 C 407.457031 320.261719 407.511719 320.273438 407.570312 320.285156 C 408.203125 320.40625 408.371094 320.84375 408.003906 321.425781 C 407.597656 322.070312 407.027344 322.546875 406.421875 322.972656 C 405.429688 323.667969 404.566406 324.480469 403.855469 325.46875 C 403.558594 325.882812 403.214844 326.292969 402.808594 326.59375 C 401.378906 327.636719 400.042969 328.800781 398.6875 329.9375 C 398.167969 330.371094 397.570312 330.734375 396.972656 331.058594 C 394.804688 332.242188 392.484375 333.027344 390.089844 333.574219 C 388.875 333.851562 387.628906 334.097656 386.359375 333.921875 C 385.476562 333.796875 384.664062 333.988281 383.875 334.363281 C 382.636719 334.945312 381.367188 335.457031 380.0625 335.867188 C 379.898438 335.917969 379.746094 336 379.839844 336.226562 C 379.929688 336.285156 380.019531 336.382812 380.113281 336.390625 C 384.730469 336.652344 389.347656 336.859375 393.96875 336.617188 C 394.660156 336.582031 395.3125 336.425781 395.945312 336.128906 C 397.542969 335.378906 399.152344 334.652344 400.710938 333.8125 C 402.160156 333.027344 403.667969 332.332031 405.1875 331.691406 C 406.660156 331.070312 408.210938 330.648438 409.796875 330.441406 C 413.71875 329.929688 417.640625 329.964844 421.566406 330.53125 C 423.941406 330.875 426.335938 330.953125 428.730469 330.765625 C 429.15625 330.730469 429.738281 330.367188 429.992188 330.820312 C 430.300781 331.375 429.6875 331.714844 429.335938 332.054688 C 429.011719 332.371094 428.648438 332.65625 428.277344 332.921875 C 426.378906 334.285156 424.539062 335.726562 422.636719 337.089844 C 419.960938 339.003906 416.996094 340.078125 413.8125 340.554688 C 411.734375 340.863281 409.609375 340.890625 407.503906 341.007812 C 406.1875 341.078125 404.886719 340.867188 403.589844 340.671875 C 401.195312 340.3125 398.945312 339.460938 396.722656 338.550781 C 394.890625 337.792969 393.050781 337.285156 391.0625 337.597656 C 390.78125 337.640625 390.492188 337.613281 390.207031 337.613281 C 385.011719 337.644531 379.828125 337.351562 374.652344 336.925781 C 374.457031 336.910156 374.210938 336.824219 374.070312 337.128906 C 374.539062 337.945312 375.375 338.195312 376.1875 338.421875 C 378.0625 338.941406 379.964844 339.328125 381.90625 339.488281 C 384.863281 339.730469 387.796875 340.136719 390.71875 340.691406 C 394.660156 341.4375 398.242188 342.972656 401.480469 345.359375 C 401.800781 345.59375 402.160156 345.78125 402.527344 345.945312 C 404.304688 346.742188 406.09375 347.496094 408.070312 347.636719 C 408.359375 347.65625 408.847656 347.578125 408.847656 348.066406 C 408.847656 348.480469 408.425781 348.554688 408.101562 348.652344 C 407.777344 348.753906 407.445312 348.851562 407.113281 348.921875 C 405.996094 349.152344 404.882812 349.390625 403.761719 349.59375 C 400.425781 350.195312 397.078125 350.375 393.730469 349.671875 C 392.222656 349.355469 390.667969 349.132812 389.238281 348.59375 C 386.015625 347.386719 383.027344 345.6875 380.222656 343.667969 C 380.039062 343.535156 379.875 343.367188 379.71875 343.203125 C 378.011719 341.417969 376.167969 339.808594 374.082031 338.484375 C 373.351562 338.019531 372.617188 337.597656 371.796875 337.320312 C 369.683594 336.601562 367.542969 336 365.34375 335.632812 C 359.527344 334.660156 353.839844 333.210938 348.328125 331.050781 C 347.226562 330.621094 346.085938 330.285156 344.707031 329.972656 C 344.957031 330.414062 345.164062 330.578125 345.386719 330.738281 C 346.785156 331.738281 348.171875 332.753906 349.410156 333.960938 C 349.960938 334.503906 350.640625 334.75 351.375 334.941406 C 354.527344 335.757812 357.664062 336.632812 360.816406 337.453125 C 362.722656 337.949219 364.503906 338.777344 366.066406 339.929688 C 367.679688 341.113281 369.167969 342.488281 370.597656 343.890625 C 372.761719 346.019531 374.828125 348.242188 377.191406 350.152344 C 377.253906 350.203125 377.28125 350.367188 377.253906 350.449219 C 377.222656 350.535156 377.097656 350.644531 377.015625 350.644531 C 376.734375 350.636719 376.449219 350.609375 376.175781 350.542969 C 375.234375 350.3125 374.300781 350.03125 373.355469 349.820312 C 369.835938 349.046875 366.398438 347.988281 362.96875 346.878906 C 361.488281 346.398438 360.152344 345.644531 358.949219 344.625 C 356.972656 342.949219 355.132812 341.117188 353.480469 339.140625 C 351.101562 336.277344 348.183594 334.070312 345.332031 331.769531 C 344.839844 331.375 344.339844 331 343.875 330.570312 C 342.988281 329.75 342.027344 329.019531 340.839844 328.679688 C 337.148438 327.621094 333.648438 326.050781 330.164062 324.449219 C 329.488281 324.140625 328.835938 323.78125 328.191406 323.402344 C 327.773438 323.15625 327.710938 322.621094 328.011719 322.203125 C 328.25 321.871094 328.574219 321.855469 328.917969 322.015625 C 329.125 322.113281 329.320312 322.238281 329.519531 322.347656 C 333.261719 324.347656 337.101562 326.125 341.050781 327.660156 C 342.808594 328.34375 344.582031 329.003906 346.382812 329.554688 C 348.839844 330.300781 351.328125 330.957031 353.742188 331.851562 C 354.332031 332.070312 354.949219 332.203125 355.554688 332.375 C 355.828125 332.457031 356.101562 332.511719 356.390625 332.421875 C 357.207031 332.167969 358.027344 331.945312 358.839844 331.679688 C 359.800781 331.363281 360.539062 330.773438 360.992188 329.84375 C 361.5 328.800781 362.261719 327.949219 363.035156 327.105469 C 363.691406 326.390625 364.332031 325.65625 364.921875 324.882812 C 365.519531 324.097656 366.210938 323.445312 367.042969 322.917969 C 367.664062 322.523438 368.300781 322.121094 368.847656 321.625 C 369.578125 320.957031 370.398438 320.472656 371.308594 320.125 C 372.269531 319.757812 373.21875 319.367188 374.183594 319.023438 C 376.765625 318.101562 379.414062 317.960938 382.113281 318.402344 C 382.699219 318.5 382.808594 318.652344 382.632812 319.203125 C 382.019531 321.125 381.25 322.976562 379.917969 324.519531 C 379.097656 325.46875 378.238281 326.386719 377.375 327.300781 C 377.101562 327.589844 376.789062 327.859375 376.445312 328.046875 C 374.742188 328.976562 373.039062 329.90625 371.132812 330.367188 C 368.414062 331.027344 365.679688 331.636719 362.855469 331.460938 C 361.210938 331.355469 359.910156 332.082031 358.605469 332.859375 C 358.714844 333.214844 358.960938 333.226562 359.160156 333.269531 C 363.5625 334.273438 367.980469 335.171875 372.457031 335.753906 C 373.644531 335.910156 374.839844 335.992188 376.035156 336.082031 C 376.367188 336.109375 376.742188 336.117188 377.039062 335.996094 C 379.304688 335.070312 381.675781 334.398438 383.851562 333.246094 C 384.285156 333.015625 384.53125 332.730469 384.695312 332.25 C 384.96875 331.4375 385.410156 330.703125 386.238281 330.3125 C 386.210938 331.1875 385.277344 331.550781 385.089844 332.523438 Z M 354.125 338.269531 C 354.488281 338.757812 354.929688 339.117188 355.566406 339.15625 C 355.628906 339.351562 355.746094 339.484375 355.949219 339.523438 C 355.953125 339.742188 356.066406 339.851562 356.28125 339.863281 C 356.472656 340.347656 356.84375 340.53125 357.339844 340.496094 C 357.351562 340.726562 357.496094 340.8125 357.703125 340.824219 C 357.992188 341.421875 358.480469 341.722656 359.117188 341.796875 C 359.347656 342.230469 359.734375 342.378906 360.1875 342.390625 C 360.308594 342.519531 360.433594 342.652344 360.554688 342.78125 C 360.785156 342.875 361.011719 342.96875 361.242188 343.058594 C 361.003906 342.976562 360.765625 342.894531 360.527344 342.8125 C 360.40625 342.683594 360.285156 342.550781 360.164062 342.421875 C 359.894531 342.078125 359.589844 341.796875 359.117188 341.796875 C 358.792969 341.242188 358.292969 340.960938 357.683594 340.851562 C 357.664062 340.625 357.527344 340.53125 357.320312 340.519531 C 357.09375 340.085938 356.734375 339.882812 356.257812 339.890625 C 356.242188 339.683594 356.105469 339.59375 355.925781 339.550781 C 355.796875 339.429688 355.667969 339.3125 355.539062 339.195312 C 355.117188 338.800781 354.757812 338.308594 354.101562 338.296875 C 354.066406 338.101562 353.945312 337.992188 353.753906 337.960938 L 353.699219 337.90625 L 353.738281 337.949219 C 353.867188 338.054688 353.996094 338.164062 354.125 338.269531 Z M 357.421875 341.917969 C 357.535156 342.027344 357.652344 342.136719 357.773438 342.246094 C 359.464844 344.167969 361.476562 345.605469 363.9375 346.347656 C 364.972656 346.65625 365.996094 346.988281 367.023438 347.324219 C 367.457031 347.46875 367.894531 347.566406 368.355469 347.519531 C 368.433594 347.585938 368.503906 347.652344 368.582031 347.714844 C 368.660156 347.421875 368.414062 347.609375 368.335938 347.546875 C 367.636719 346.949219 366.800781 346.601562 365.984375 346.226562 C 363.460938 345.066406 360.9375 343.90625 358.542969 342.484375 C 358.296875 342.339844 358.046875 342.207031 357.746094 342.273438 C 357.691406 342.097656 357.59375 341.96875 357.398438 341.945312 C 357.277344 341.828125 357.15625 341.707031 357.035156 341.585938 L 356.976562 341.515625 L 357.011719 341.574219 C 357.148438 341.691406 357.28125 341.804688 357.421875 341.917969 Z M 363.109375 328.167969 C 363.027344 328.183594 363.023438 328.101562 363.132812 328.101562 C 363.132812 328.101562 363.179688 328.066406 363.179688 328.066406 L 363.117188 328.097656 C 363.09375 328.324219 363.328125 328.125 363.109375 328.167969 Z M 364.082031 327.394531 L 364.167969 327.398438 C 364.257812 327.265625 364.34375 327.128906 364.433594 326.992188 C 364.539062 326.957031 364.671875 326.953125 364.75 326.886719 C 366.953125 325.023438 369.558594 323.878906 372.125 322.65625 C 374.074219 321.726562 376.039062 320.832031 378.078125 320.113281 C 378.921875 319.816406 379.777344 319.542969 380.617188 319.257812 C 380.585938 318.847656 380.289062 318.960938 380.105469 318.949219 C 378.140625 318.796875 376.246094 319.160156 374.40625 319.792969 C 373.226562 320.199219 372.074219 320.699219 370.925781 321.191406 C 370.511719 321.367188 370.082031 321.578125 369.761719 321.882812 C 368.84375 322.75 367.785156 323.410156 366.761719 324.132812 C 365.734375 324.863281 364.902344 325.785156 364.441406 326.996094 C 364.207031 327.050781 364.15625 327.210938 364.199219 327.425781 Z M 370.050781 348.167969 C 370.042969 348.171875 370.035156 348.171875 370.027344 348.175781 C 370.007812 348.082031 370.046875 348.191406 370.050781 348.167969 Z M 369.226562 346.140625 C 369.019531 346.03125 368.8125 345.917969 368.609375 345.804688 L 368.546875 345.746094 L 368.597656 345.796875 C 368.816406 345.902344 369.035156 346.015625 369.253906 346.125 C 369.507812 346.207031 369.761719 346.292969 370.015625 346.375 L 370.078125 346.441406 L 370.035156 346.386719 C 369.765625 346.304688 369.496094 346.222656 369.226562 346.140625 Z M 366.792969 344.863281 C 366.5625 344.757812 366.335938 344.648438 366.105469 344.539062 C 365.910156 344.351562 365.6875 344.234375 365.410156 344.242188 C 365.382812 344.191406 365.371094 344.117188 365.328125 344.089844 C 363.121094 342.664062 360.933594 341.195312 358.617188 339.957031 C 358.425781 339.855469 358.183594 339.851562 357.964844 339.800781 C 357.949219 339.578125 357.792969 339.5 357.605469 339.457031 C 357.425781 339.195312 357.167969 339.164062 356.886719 339.195312 L 356.84375 339.078125 L 356.914062 339.164062 C 357.097656 339.40625 357.351562 339.449219 357.628906 339.429688 C 357.652344 339.644531 357.792969 339.738281 357.988281 339.773438 C 358.527344 340.542969 359.390625 340.882812 360.128906 341.382812 C 361.199219 342.113281 362.289062 342.808594 363.40625 343.464844 C 364.027344 343.828125 364.648438 344.257812 365.429688 344.214844 C 365.566406 344.546875 365.863281 344.484375 366.125 344.511719 C 366.28125 344.78125 366.5625 344.773438 366.816406 344.832031 C 367.015625 345.0625 367.285156 345.0625 367.550781 345.089844 L 367.585938 345.167969 L 367.558594 345.117188 C 367.308594 345.03125 367.050781 344.945312 366.792969 344.863281 Z M 361.199219 339 C 362.902344 339.90625 364.675781 340.679688 366.324219 341.703125 C 366.410156 341.753906 366.542969 341.734375 366.652344 341.746094 C 366.667969 341.945312 366.820312 341.996094 366.96875 342.0625 C 367.109375 342.128906 367.1875 342.113281 367.195312 341.984375 C 367.199219 341.945312 367.152344 341.875 367.113281 341.863281 C 366.964844 341.808594 366.8125 341.773438 366.664062 341.730469 C 366.449219 341.164062 366 340.785156 365.523438 340.488281 C 363.824219 339.421875 362.074219 338.457031 360.097656 338.027344 C 359.824219 337.96875 359.53125 338 359.25 337.988281 C 359.175781 337.925781 359.101562 337.863281 359.023438 337.796875 C 358.949219 338.09375 359.191406 337.90625 359.273438 337.964844 C 359.808594 338.507812 360.554688 338.65625 361.199219 339 Z M 358.957031 339.222656 C 361.324219 340.679688 363.691406 342.136719 366.089844 343.539062 C 367.019531 344.082031 368.023438 344.496094 369.003906 344.9375 C 369.1875 345.019531 369.4375 344.953125 369.65625 344.953125 L 369.636719 345.054688 L 369.632812 344.984375 C 368.316406 343.484375 366.5 342.71875 364.84375 341.75 C 362.628906 340.464844 360.363281 339.253906 357.960938 338.351562 C 357.878906 338.332031 357.800781 338.320312 357.722656 338.300781 C 357.808594 338.3125 357.898438 338.324219 357.984375 338.332031 C 358.113281 338.84375 358.589844 338.996094 358.957031 339.222656 Z M 380.890625 320.960938 C 379.863281 321.355469 379.007812 322.019531 378.195312 322.730469 C 377.539062 323.304688 376.824219 323.71875 376.019531 324.046875 C 373.863281 324.9375 371.769531 325.972656 369.746094 327.132812 C 368.898438 327.617188 367.964844 327.882812 366.902344 328.476562 C 367.96875 328.394531 368.730469 328.097656 369.5 327.828125 C 370.464844 327.484375 371.441406 327.167969 372.398438 326.804688 C 372.980469 326.585938 373.550781 326.316406 374.101562 326.023438 C 375.007812 325.542969 375.917969 325.058594 376.78125 324.515625 C 378.324219 323.539062 379.710938 322.371094 380.867188 320.941406 Z M 387.503906 331.726562 C 387.535156 331.730469 387.570312 331.738281 387.597656 331.734375 C 387.644531 331.722656 387.6875 331.703125 387.734375 331.683594 C 390.699219 330.472656 393.390625 328.757812 396.136719 327.140625 C 396.675781 326.824219 397.230469 326.53125 397.773438 326.226562 C 398.171875 326.007812 398.601562 325.828125 398.964844 325.558594 C 400.101562 324.710938 401.167969 323.769531 402.402344 322.988281 C 401.824219 323.167969 401.238281 323.316406 400.671875 323.527344 C 398.753906 324.253906 396.890625 325.097656 395.171875 326.238281 C 394.320312 326.804688 393.421875 327.308594 392.515625 327.78125 C 390.882812 328.628906 389.460938 329.753906 388.109375 330.984375 C 387.898438 331.175781 387.6875 331.375 387.769531 331.710938 C 387.679688 331.714844 387.589844 331.722656 387.503906 331.726562 Z M 403.324219 333.621094 C 403.167969 333.621094 403.109375 333.675781 403.183594 333.769531 C 403.195312 333.785156 403.285156 333.761719 403.332031 333.738281 C 403.425781 333.695312 403.519531 333.640625 403.613281 333.589844 C 406.851562 332.335938 410.222656 332.050781 413.664062 332.121094 C 417.300781 332.195312 420.9375 331.996094 424.566406 331.71875 C 424.714844 331.703125 424.855469 331.640625 425 331.542969 C 422.710938 331.667969 420.480469 331.121094 418.222656 330.980469 C 414.277344 330.738281 410.378906 330.863281 406.585938 332.074219 C 405.773438 332.328125 404.960938 332.597656 404.226562 333.042969 C 403.996094 333.1875 403.703125 333.285156 403.648438 333.617188 C 403.539062 333.617188 403.429688 333.621094 403.324219 333.621094 Z M 380.636719 322.253906 L 380.578125 322.273438 C 379.773438 323 378.972656 323.726562 378.167969 324.453125 C 378.082031 324.527344 377.996094 324.609375 377.898438 324.660156 C 375.945312 325.703125 374.109375 326.945312 371.984375 327.695312 C 369.351562 328.628906 366.660156 329.351562 364 330.183594 C 363.898438 330.214844 363.816406 330.304688 363.726562 330.371094 C 363.800781 330.671875 364.050781 330.652344 364.269531 330.65625 C 366.519531 330.6875 368.667969 330.101562 370.832031 329.59375 C 372.734375 329.144531 374.476562 328.304688 376.195312 327.40625 C 376.5 327.25 376.824219 327.089844 377.054688 326.851562 C 378.320312 325.535156 379.507812 324.152344 380.535156 322.636719 C 380.589844 322.554688 380.550781 322.410156 380.558594 322.300781 Z M 400.128906 345.332031 C 397.878906 344.09375 395.628906 342.816406 393.105469 342.195312 C 390.71875 341.609375 388.316406 341.128906 385.882812 340.804688 C 385.71875 340.78125 385.546875 340.816406 385.121094 340.839844 C 386.625 341.496094 387.882812 342.101562 389.183594 342.59375 C 391.050781 343.304688 392.945312 343.9375 394.828125 344.605469 C 395.207031 344.738281 395.613281 344.832031 395.945312 345.039062 C 397.480469 345.992188 399.230469 346.332031 400.910156 346.882812 C 401.464844 347.0625 402.019531 347.128906 402.59375 347.101562 C 402.664062 347.121094 402.734375 347.140625 402.804688 347.15625 C 402.769531 347.136719 402.738281 347.109375 402.703125 347.105469 C 402.664062 347.101562 402.617188 347.117188 402.574219 347.125 C 401.898438 346.339844 400.992188 345.804688 400.128906 345.332031 Z M 398.253906 336.269531 C 402.398438 335.914062 406.535156 335.511719 410.628906 334.765625 C 413.484375 334.242188 416.347656 333.777344 419.246094 333.277344 C 418.78125 332.941406 418.308594 333.179688 417.863281 333.128906 C 417.351562 333.078125 416.835938 333.027344 416.328125 333.039062 C 413.820312 333.082031 411.3125 333.136719 408.804688 333.214844 C 407.664062 333.246094 406.542969 333.460938 405.449219 333.792969 C 403.597656 334.359375 401.738281 334.894531 399.894531 335.480469 C 399.324219 335.664062 398.652344 335.699219 398.277344 336.292969 C 398.277344 336.28125 398.214844 336.328125 398.253906 336.269531 Z M 385.195312 345.816406 C 385.441406 345.960938 385.722656 346.042969 385.964844 346.191406 C 389.273438 348.222656 392.988281 348.796875 396.71875 349.3125 C 397.222656 349.382812 397.742188 349.386719 398.253906 349.363281 C 399.839844 349.296875 401.429688 349.199219 403.019531 349.019531 C 401.617188 348.566406 400.160156 348.578125 398.730469 348.449219 C 396.511719 348.246094 394.339844 347.835938 392.226562 347.097656 C 391.3125 346.777344 390.390625 346.46875 389.460938 346.203125 C 387.972656 345.777344 386.585938 345.097656 385.1875 344.457031 C 384.410156 344.097656 383.75 343.542969 383.070312 343.011719 C 381.851562 342.054688 380.554688 341.226562 378.941406 341.140625 L 378.890625 341.0625 L 378.921875 341.121094 C 380.601562 343.242188 382.953125 344.457031 385.195312 345.816406 Z M 405.277344 322.703125 C 403.410156 323.667969 401.46875 324.5 399.804688 325.820312 C 399.449219 326.101562 399.085938 326.394531 398.683594 326.59375 C 396.234375 327.816406 393.941406 329.3125 391.570312 330.671875 C 390.683594 331.179688 389.730469 331.566406 388.808594 332.011719 C 388.15625 332.324219 387.46875 332.582031 386.839844 333.117188 C 387.292969 333.429688 387.6875 333.289062 388.039062 333.234375 C 391.09375 332.734375 394.015625 331.816406 396.769531 330.398438 C 397.839844 329.84375 398.8125 329.15625 399.683594 328.316406 C 400.09375 327.921875 400.496094 327.496094 400.976562 327.203125 C 402.71875 326.136719 403.9375 324.550781 405.195312 323 C 405.253906 322.929688 405.234375 322.789062 405.246094 322.683594 C 405.257812 322.6875 405.265625 322.695312 405.277344 322.703125 Z M 426.535156 333.328125 L 426.492188 333.351562 C 423.285156 334.675781 420.03125 335.859375 416.703125 336.8125 C 413.191406 337.820312 409.617188 338.496094 405.933594 338.265625 C 404.0625 338.148438 402.191406 337.953125 400.328125 337.746094 C 399.371094 337.636719 398.425781 337.558594 397.421875 337.511719 C 397.503906 337.726562 397.519531 337.878906 397.585938 337.902344 C 399.167969 338.550781 400.761719 339.171875 402.429688 339.578125 C 404.828125 340.160156 407.25 340.410156 409.710938 340.1875 C 410.730469 340.09375 411.75 340.007812 412.773438 339.941406 C 415.425781 339.765625 417.957031 339.027344 420.265625 337.796875 C 422.503906 336.601562 424.710938 335.273438 426.46875 333.359375 Z M 414.003906 334.980469 C 410.023438 335.648438 406.058594 336.445312 402.011719 336.703125 C 401.5625 336.730469 401.117188 336.804688 400.457031 336.886719 C 407.941406 338.359375 415.292969 337.117188 423.734375 333.222656 C 420.492188 333.8125 417.257812 334.433594 414.003906 334.980469 Z M 399.4375 347.257812 C 398.890625 347.097656 398.308594 347.003906 397.808594 346.746094 C 394.390625 345.007812 390.664062 344.058594 387.175781 342.496094 C 385.632812 341.804688 383.941406 341.449219 382.269531 341.039062 C 383.304688 342.148438 384.390625 343.15625 385.757812 343.8125 C 386.476562 344.160156 387.167969 344.59375 387.914062 344.855469 C 390.277344 345.683594 392.621094 346.589844 395.089844 347.078125 C 396.539062 347.363281 397.972656 347.761719 399.460938 347.78125 C 399.742188 347.785156 400.019531 347.789062 400.34375 347.792969 C 400.097656 347.410156 399.761719 347.351562 399.4375 347.257812 Z M 378.605469 320.515625 C 374.507812 322.082031 370.582031 324 366.773438 326.164062 C 366.019531 326.59375 365.394531 327.171875 364.761719 327.742188 C 364.523438 327.957031 364.171875 328.097656 364.160156 328.5 C 364.214844 328.53125 364.28125 328.597656 364.3125 328.582031 C 366.277344 327.707031 368.316406 327.027344 370.226562 325.976562 C 372.058594 324.972656 373.898438 323.925781 375.878906 323.199219 C 376.636719 322.921875 377.308594 322.523438 377.917969 321.988281 C 378.503906 321.472656 379.144531 321.015625 379.789062 320.511719 C 379.320312 320.171875 378.945312 320.386719 378.605469 320.515625 Z M 378.605469 320.515625 " fill-opacity="1" fill-rule="nonzero"/></g></g></g></svg>