<svg xmlns="http://www.w3.org/2000/svg" xmlns:xlink="http://www.w3.org/1999/xlink" width="1640" zoomAndPan="magnify" viewBox="0 0 1230 693.000001" height="924" preserveAspectRatio="xMidYMid meet" version="1.0"><defs><g/><clipPath id="312e31c33b"><path d="M 763 29.105469 L 1090 29.105469 L 1090 193.867188 L 763 193.867188 Z M 763 29.105469 " clip-rule="nonzero"/></clipPath></defs><g fill="#2b2b2b" fill-opacity="1"><g transform="translate(112.73581, 455.480437)"><g><path d="M 138.382812 -169.472656 C 196.1875 -177.796875 217.207031 -204.507812 217.207031 -239.542969 C 217.207031 -282.019531 186.992188 -312.234375 98.09375 -312.234375 C 72.695312 -312.234375 42.917969 -307.855469 17.078125 -307.417969 L 13.136719 -307.417969 L 13.136719 -303.476562 C 15.765625 -303.476562 23.210938 -298.660156 23.210938 -269.757812 L 23.210938 -37.660156 C 23.210938 -9.195312 15.765625 -3.941406 13.136719 -3.941406 L 13.136719 0 L 64.375 0 L 64.375 -3.941406 C 61.746094 -3.941406 54.300781 -9.195312 54.300781 -37.660156 L 54.300781 -167.285156 L 103.785156 -167.285156 L 170.351562 -52.113281 C 186.554688 -24.085938 193.121094 -3.941406 189.617188 -3.941406 L 189.617188 0 L 240.855469 0 L 240.855469 -3.941406 C 234.285156 -3.941406 219.835938 -28.902344 200.566406 -61.746094 Z M 54.300781 -306.105469 C 69.628906 -307.417969 84.519531 -308.734375 98.09375 -308.734375 C 136.191406 -308.734375 186.554688 -293.84375 186.554688 -239.542969 C 186.554688 -185.675781 136.191406 -170.789062 98.09375 -170.789062 L 54.300781 -170.789062 Z M 54.300781 -306.105469 "/></g></g></g><g fill="#2b2b2b" fill-opacity="1"><g transform="translate(366.728783, 455.480437)"><g><path d="M 139.257812 3.503906 C 186.554688 3.503906 227.28125 -27.589844 227.28125 -75.761719 C 227.28125 -125.246094 185.238281 -151.957031 139.695312 -168.160156 C 98.96875 -182.613281 54.300781 -209.761719 54.300781 -252.242188 C 54.300781 -294.71875 105.101562 -307.417969 124.367188 -307.417969 C 190.933594 -307.417969 212.390625 -215.894531 212.390625 -215.894531 L 216.332031 -215.894531 L 226.84375 -254.429688 C 209.761719 -284.648438 183.925781 -311.359375 124.367188 -311.359375 C 76.636719 -311.359375 36.347656 -280.269531 36.347656 -232.097656 C 36.347656 -182.613281 78.386719 -155.898438 123.929688 -139.695312 C 164.21875 -125.246094 208.886719 -97.65625 208.886719 -55.179688 C 208.886719 -12.699219 158.527344 0 139.257812 0 C 72.695312 0 27.152344 -105.101562 27.152344 -105.101562 L 23.648438 -105.101562 L 13.136719 -66.125 C 30.214844 -35.910156 79.703125 3.503906 139.257812 3.503906 Z M 139.257812 3.503906 "/></g></g></g><g fill="#2b2b2b" fill-opacity="1"><g transform="translate(607.14628, 455.480437)"><g><path d="M 224.652344 -303.476562 C 236.039062 -303.476562 236.476562 -286.835938 225.089844 -253.554688 L 148.890625 -30.214844 L 69.628906 -261 C 62.183594 -285.085938 61.308594 -303.476562 64.8125 -303.476562 L 64.8125 -307.417969 L 13.136719 -307.417969 L 13.136719 -303.476562 C 20.144531 -303.476562 31.09375 -277.203125 42.476562 -243.921875 L 126.121094 0 L 158.964844 0 L 150.644531 -24.523438 L 229.03125 -252.679688 C 242.167969 -292.09375 255.308594 -303.476562 261.875 -303.476562 L 261.875 -307.417969 L 224.652344 -307.417969 Z M 224.652344 -303.476562 "/></g></g></g><g fill="#2b2b2b" fill-opacity="1"><g transform="translate(882.159334, 455.480437)"><g><path d="M 64.8125 -3.941406 C 61.746094 -3.941406 54.300781 -9.195312 54.300781 -37.660156 L 54.300781 -167.285156 L 98.53125 -167.285156 C 186.992188 -167.285156 217.644531 -197.5 217.644531 -239.542969 C 217.644531 -282.019531 186.992188 -312.234375 98.53125 -312.234375 C 73.132812 -312.234375 42.917969 -307.855469 17.078125 -307.417969 L 13.136719 -307.417969 L 13.136719 -303.476562 C 15.765625 -303.476562 23.210938 -298.660156 23.210938 -269.757812 L 23.210938 -37.660156 C 23.210938 -9.195312 15.765625 -3.941406 13.136719 -3.941406 L 13.136719 0 L 64.8125 0 Z M 54.300781 -171.226562 L 54.300781 -306.105469 C 69.628906 -307.417969 84.519531 -308.734375 98.53125 -308.734375 C 136.191406 -308.734375 186.992188 -293.84375 186.992188 -239.542969 C 186.992188 -185.675781 136.191406 -170.789062 98.53125 -170.789062 L 98.53125 -171.226562 Z M 54.300781 -171.226562 "/></g></g></g><g clip-path="url(#312e31c33b)"><path fill="#2b2b2b" d="M 911.9375 104.015625 C 906.917969 105.367188 902.746094 107.722656 898.410156 109.589844 C 893.945312 111.519531 889.546875 113.660156 884.785156 114.667969 C 880.03125 115.667969 875.242188 116.445312 870.613281 117.96875 C 865.96875 119.492188 861.171875 120.269531 856.347656 120.792969 C 851.542969 121.3125 846.710938 121.601562 841.875 121.992188 C 841.519531 123.359375 842.675781 123.113281 843.238281 123.230469 C 852.894531 125.25 862.503906 124.453125 872.179688 123.066406 C 882.671875 121.5625 893.117188 116.261719 903.511719 110.921875 C 904.359375 110.484375 905.109375 109.804688 906.171875 109.980469 C 905.039062 113.046875 902.113281 114.085938 899.617188 115.394531 C 894.277344 118.195312 888.773438 120.675781 883.308594 123.242188 C 882.257812 123.738281 881.136719 124.132812 880.007812 124.386719 C 872.8125 126.011719 865.664062 127.570312 858.207031 128.128906 C 847.109375 128.96875 837.0625 125.710938 826.960938 122.125 C 826.78125 122.058594 826.609375 121.960938 826.433594 121.875 C 824.476562 120.863281 824.363281 119.28125 826.132812 117.753906 C 828.09375 116.058594 830.414062 115.058594 832.824219 114.269531 C 836.75 112.980469 840.367188 111.183594 843.664062 108.667969 C 845.039062 107.617188 846.566406 106.617188 848.1875 106.046875 C 853.886719 104.046875 859.382812 101.570312 864.933594 99.207031 C 867.066406 98.296875 869.367188 97.703125 871.644531 97.226562 C 879.890625 95.5 888.253906 95.210938 896.617188 95.761719 C 900.867188 96.042969 905.179688 96.453125 909.15625 98.257812 C 911.925781 99.519531 914.773438 99.683594 917.714844 99.238281 C 922.339844 98.546875 926.988281 98.125 931.660156 98.054688 C 932.242188 98.046875 932.824219 97.9375 932.746094 97.113281 C 932.496094 96.839844 932.300781 96.429688 932 96.316406 C 917.160156 90.984375 902.269531 85.828125 886.914062 82.128906 C 884.609375 81.574219 882.324219 81.441406 879.972656 81.789062 C 874.007812 82.675781 868.039062 83.46875 862.117188 84.675781 C 856.601562 85.808594 850.992188 86.605469 845.390625 87.207031 C 839.96875 87.789062 834.488281 87.652344 829.097656 86.78125 C 815.765625 84.632812 802.976562 80.710938 790.691406 75.058594 C 783.261719 71.640625 775.511719 69.0625 767.492188 67.351562 C 766.0625 67.046875 763.796875 67.660156 763.417969 65.941406 C 762.957031 63.84375 765.292969 63.347656 766.769531 62.582031 C 768.144531 61.867188 769.609375 61.300781 771.085938 60.796875 C 778.632812 58.214844 786.0625 55.328125 793.621094 52.757812 C 804.238281 49.152344 814.996094 48.550781 825.867188 50.097656 C 832.96875 51.113281 839.941406 53.085938 846.945312 54.753906 C 851.320312 55.796875 855.363281 57.75 859.421875 59.648438 C 866.898438 63.136719 873.425781 68.070312 879.792969 73.1875 C 885.046875 77.417969 890.5625 80.847656 897.378906 81.777344 C 898.332031 81.90625 899.253906 82.277344 900.195312 82.554688 C 917.214844 87.492188 933.875 93.472656 950.386719 99.878906 C 951.019531 100.125 951.738281 100.644531 952.488281 99.785156 C 951.761719 96.6875 949.273438 95.0625 946.832031 93.539062 C 941.210938 90.035156 935.371094 86.933594 929.179688 84.535156 C 919.738281 80.875 910.542969 76.710938 901.523438 72.078125 C 889.367188 65.824219 879.160156 57.378906 870.914062 46.496094 C 870.097656 45.417969 869.089844 44.464844 868.058594 43.582031 C 863.03125 39.261719 857.914062 35.082031 851.589844 32.707031 C 850.660156 32.363281 848.984375 32.140625 849.460938 30.558594 C 849.863281 29.226562 851.320312 29.394531 852.476562 29.382812 C 853.644531 29.367188 854.8125 29.382812 855.976562 29.480469 C 859.851562 29.808594 863.730469 30.121094 867.597656 30.550781 C 879.09375 31.832031 890.21875 34.5 900.480469 40.035156 C 905.101562 42.523438 909.960938 44.757812 914.117188 47.890625 C 923.472656 54.933594 931.582031 63.347656 938.769531 72.621094 C 939.246094 73.226562 939.613281 73.933594 939.972656 74.621094 C 943.804688 82.054688 948.25 89.0625 953.78125 95.382812 C 955.710938 97.597656 957.703125 99.675781 960.113281 101.375 C 966.320312 105.761719 972.734375 109.792969 979.566406 113.117188 C 997.640625 121.910156 1014.820312 132.136719 1030.726562 144.480469 C 1033.90625 146.953125 1037.308594 149.148438 1041.511719 151.496094 C 1041.125 149.828125 1040.617188 149.089844 1040.042969 148.359375 C 1036.445312 143.757812 1032.90625 139.117188 1030.046875 134 C 1028.765625 131.710938 1026.789062 130.25 1024.570312 128.914062 C 1015.0625 123.203125 1005.664062 117.328125 996.15625 111.609375 C 990.40625 108.144531 985.398438 103.742188 981.410156 98.480469 C 977.300781 93.074219 973.777344 87.179688 970.472656 81.234375 C 965.480469 72.242188 960.902344 63.019531 955.046875 54.535156 C 954.890625 54.308594 954.957031 53.753906 955.132812 53.515625 C 955.3125 53.269531 955.828125 53.027344 956.089844 53.113281 C 957.003906 53.414062 957.914062 53.773438 958.742188 54.253906 C 961.601562 55.921875 964.371094 57.738281 967.261719 59.332031 C 978.015625 65.261719 988.226562 72.03125 998.34375 78.957031 C 1002.71875 81.953125 1006.355469 85.691406 1009.285156 90.167969 C 1014.109375 97.519531 1018.339844 105.242188 1021.792969 113.261719 C 1026.78125 124.851562 1034.160156 134.84375 1041.238281 145.0625 C 1042.449219 146.820312 1043.71875 148.519531 1044.820312 150.371094 C 1046.917969 153.886719 1049.351562 157.1875 1052.898438 159.441406 C 1063.9375 166.46875 1073.839844 174.949219 1083.671875 183.523438 C 1085.578125 185.183594 1087.359375 186.988281 1089.089844 188.832031 C 1090.226562 190.039062 1089.90625 191.835938 1088.511719 192.902344 C 1087.40625 193.738281 1086.324219 193.484375 1085.355469 192.621094 C 1084.777344 192.105469 1084.265625 191.511719 1083.710938 190.96875 C 1073.441406 180.851562 1062.617188 171.355469 1051.210938 162.546875 C 1046.132812 158.617188 1040.980469 154.761719 1035.628906 151.234375 C 1028.324219 146.417969 1020.828125 141.875 1013.804688 136.632812 C 1012.09375 135.359375 1010.207031 134.320312 1008.398438 133.175781 C 1007.574219 132.652344 1006.734375 132.207031 1005.703125 132.214844 C 1002.789062 132.242188 999.878906 132.167969 996.964844 132.246094 C 993.519531 132.332031 990.523438 133.527344 988.132812 136.105469 C 985.449219 139 982.128906 141.011719 978.757812 143 C 975.910156 144.679688 973.097656 146.4375 970.421875 148.371094 C 967.691406 150.335938 964.792969 151.789062 961.5625 152.683594 C 959.132812 153.355469 956.660156 154.042969 954.394531 155.121094 C 951.339844 156.578125 948.191406 157.355469 944.863281 157.597656 C 941.371094 157.851562 937.882812 158.207031 934.390625 158.382812 C 925.042969 158.859375 916.234375 156.742188 907.851562 152.691406 C 906.023438 151.808594 905.816406 151.207031 906.929688 149.585938 C 910.820312 143.953125 915.144531 138.699219 921.011719 134.992188 C 924.628906 132.707031 928.339844 130.5625 932.058594 128.4375 C 933.226562 127.769531 934.527344 127.195312 935.832031 126.921875 C 942.308594 125.570312 948.792969 124.210938 955.476562 124.5625 C 965.015625 125.066406 974.554688 125.738281 983.617188 129.058594 C 988.890625 130.992188 993.859375 129.902344 998.886719 128.640625 C 998.871094 127.386719 998.082031 127.109375 997.476562 126.769531 C 984.066406 119.25 970.492188 112.046875 956.425781 105.8125 C 952.691406 104.160156 948.863281 102.722656 945.042969 101.269531 C 943.980469 100.867188 942.765625 100.472656 941.667969 100.578125 C 933.351562 101.375 924.941406 101.257812 916.699219 102.882812 C 915.050781 103.210938 913.96875 103.890625 912.96875 105.289062 C 911.273438 107.660156 909.113281 109.609375 906.023438 110.078125 C 906.96875 107.269531 910.378906 106.988281 911.9375 104.015625 Z M 1018.84375 115.457031 C 1018.132812 113.519531 1017.035156 111.921875 1015 111.179688 C 1014.984375 110.492188 1014.722656 109.949219 1014.097656 109.617188 C 1014.300781 108.910156 1014.039062 108.441406 1013.351562 108.199219 C 1013.195312 106.433594 1012.164062 105.480469 1010.5 105.121094 C 1010.695312 104.355469 1010.3125 103.9375 1009.636719 103.695312 C 1009.273438 101.484375 1007.980469 100.027344 1005.964844 99.171875 C 1005.644531 97.539062 1004.527344 96.6875 1003.042969 96.207031 C 1002.777344 95.667969 1002.503906 95.128906 1002.234375 94.589844 C 1001.574219 94.0625 1000.917969 93.539062 1000.257812 93.015625 C 1000.957031 93.519531 1001.652344 94.007812 1002.351562 94.507812 C 1002.621094 95.046875 1002.886719 95.589844 1003.15625 96.128906 C 1003.699219 97.507812 1004.421875 98.714844 1005.964844 99.171875 C 1006.480469 101.289062 1007.851562 102.683594 1009.738281 103.636719 C 1009.566406 104.386719 1009.925781 104.820312 1010.597656 105.0625 C 1010.917969 106.683594 1011.890625 107.6875 1013.457031 108.132812 C 1013.300781 108.820312 1013.660156 109.238281 1014.203125 109.558594 C 1014.507812 110.066406 1014.816406 110.578125 1015.117188 111.085938 C 1016.113281 112.773438 1016.8125 114.71875 1018.949219 115.386719 C 1018.871094 116.054688 1019.15625 116.523438 1019.75 116.8125 L 1019.875 117.054688 L 1019.789062 116.871094 C 1019.476562 116.398438 1019.164062 115.929688 1018.84375 115.457031 Z M 1011.636719 100.433594 C 1011.363281 99.964844 1011.089844 99.5 1010.808594 99.027344 C 1007.152344 91.148438 1001.988281 84.539062 994.65625 79.742188 C 991.582031 77.738281 988.550781 75.664062 985.527344 73.582031 C 984.242188 72.691406 982.910156 71.941406 981.355469 71.652344 C 981.175781 71.363281 980.996094 71.078125 980.816406 70.796875 C 980.273438 71.671875 981.257812 71.304688 981.453125 71.585938 C 983.152344 74.195312 985.546875 76.140625 987.847656 78.148438 C 994.96875 84.355469 1002.085938 90.566406 1008.523438 97.5 C 1009.179688 98.210938 1009.867188 98.886719 1010.917969 98.957031 C 1010.925781 99.585938 1011.121094 100.09375 1011.742188 100.363281 C 1012.015625 100.867188 1012.296875 101.375 1012.570312 101.878906 L 1012.695312 102.164062 L 1012.636719 101.945312 C 1012.308594 101.433594 1011.976562 100.929688 1011.636719 100.433594 Z M 979.566406 139.484375 C 979.847656 139.507812 979.777344 139.78125 979.425781 139.679688 C 979.425781 139.671875 979.234375 139.75 979.234375 139.75 L 979.464844 139.699219 C 979.769531 138.992188 978.804688 139.402344 979.566406 139.484375 Z M 975.617188 141.042969 L 975.351562 140.953125 C 974.917969 141.292969 974.5 141.652344 974.082031 142.011719 C 973.699219 142.019531 973.261719 141.902344 972.933594 142.042969 C 963.914062 145.9375 954.277344 147.121094 944.679688 148.59375 C 937.386719 149.71875 930.085938 150.714844 922.71875 151.0625 C 919.660156 151.207031 916.605469 151.265625 913.570312 151.371094 C 913.269531 152.730469 914.359375 152.644531 914.949219 152.867188 C 921.222656 155.273438 927.777344 155.925781 934.410156 155.664062 C 938.667969 155.492188 942.921875 154.992188 947.160156 154.515625 C 948.6875 154.34375 950.300781 154.074219 951.652344 153.402344 C 955.503906 151.476562 959.617188 150.363281 963.664062 149.011719 C 967.738281 147.644531 971.363281 145.46875 974.058594 141.992188 C 974.875 142.039062 975.207031 141.566406 975.273438 140.828125 Z M 976.445312 67.902344 C 976.480469 67.902344 976.511719 67.902344 976.539062 67.902344 C 976.511719 68.222656 976.480469 67.835938 976.445312 67.902344 Z M 977.160156 75.273438 C 977.734375 75.835938 978.292969 76.398438 978.851562 76.960938 L 978.992188 77.214844 L 978.882812 77.003906 C 978.273438 76.441406 977.667969 75.875 977.054688 75.304688 C 976.304688 74.789062 975.554688 74.265625 974.808594 73.75 L 974.671875 73.476562 L 974.757812 73.691406 C 975.558594 74.214844 976.355469 74.742188 977.160156 75.273438 Z M 983.863281 81.78125 C 984.515625 82.351562 985.15625 82.925781 985.800781 83.496094 C 986.257812 84.292969 986.875 84.894531 987.78125 85.132812 C 987.820312 85.324219 987.789062 85.574219 987.898438 85.703125 C 993.722656 92.480469 999.433594 99.355469 1005.804688 105.628906 C 1006.328125 106.144531 1007.113281 106.386719 1007.777344 106.761719 C 1007.613281 107.503906 1008.046875 107.910156 1008.625 108.230469 C 1008.945312 109.25 1009.769531 109.597656 1010.714844 109.773438 L 1010.742188 110.199219 L 1010.597656 109.84375 C 1010.234375 108.882812 1009.449219 108.5 1008.523438 108.296875 C 1008.652344 107.570312 1008.28125 107.125 1007.679688 106.824219 C 1006.667969 103.804688 1004.175781 101.871094 1002.261719 99.53125 C 999.472656 96.128906 996.582031 92.808594 993.570312 89.605469 C 991.902344 87.820312 990.289062 85.820312 987.695312 85.207031 C 987.570312 83.996094 986.535156 83.914062 985.703125 83.574219 C 985.464844 82.546875 984.535156 82.292969 983.765625 81.855469 C 983.339844 80.917969 982.445312 80.65625 981.605469 80.3125 L 981.578125 80.023438 L 981.613281 80.214844 C 982.347656 80.738281 983.105469 81.257812 983.863281 81.78125 Z M 996.425781 106.222656 C 991.738281 101.628906 986.695312 97.394531 982.308594 92.488281 C 982.074219 92.226562 981.625 92.167969 981.273438 92.015625 C 981.414062 91.355469 980.964844 91.050781 980.546875 90.683594 C 980.15625 90.34375 979.882812 90.3125 979.730469 90.714844 C 979.683594 90.847656 979.769531 91.113281 979.886719 91.199219 C 980.3125 91.511719 980.777344 91.773438 981.21875 92.054688 C 981.363281 94.109375 982.472656 95.769531 983.734375 97.191406 C 988.246094 102.296875 993.023438 107.125 999.074219 110.445312 C 999.90625 110.902344 1000.890625 111.078125 1001.804688 111.386719 C 1001.988281 111.667969 1002.167969 111.949219 1002.351562 112.230469 C 1002.886719 111.347656 1001.921875 111.714844 1001.707031 111.453125 C 1000.492188 109.164062 998.195312 107.957031 996.425781 106.222656 Z M 1003.972656 107.679688 C 997.660156 100.648438 991.339844 93.628906 984.867188 86.75 C 982.367188 84.089844 979.488281 81.777344 976.707031 79.398438 C 976.1875 78.945312 975.304688 78.917969 974.585938 78.703125 L 974.757812 78.398438 L 974.703125 78.625 C 977.53125 84.769531 982.722656 89.011719 987.199219 93.761719 C 993.171875 100.085938 999.402344 106.203125 1006.375 111.472656 C 1006.621094 111.601562 1006.863281 111.726562 1007.113281 111.859375 C 1006.835938 111.738281 1006.558594 111.621094 1006.28125 111.503906 C 1006.359375 109.71875 1004.949219 108.773438 1003.972656 107.679688 Z M 914.347656 145.585938 C 918.089844 145.304688 921.542969 143.980469 924.898438 142.460938 C 927.601562 141.242188 930.355469 140.59375 933.300781 140.304688 C 941.230469 139.523438 949.09375 138.195312 956.847656 136.390625 C 960.085938 135.640625 963.402344 135.699219 967.464844 134.796875 C 963.898438 134.027344 961.113281 134.246094 958.332031 134.386719 C 954.835938 134.5625 951.339844 134.632812 947.851562 134.882812 C 945.722656 135.03125 943.601562 135.34375 941.507812 135.765625 C 938.078125 136.445312 934.632812 137.125 931.269531 138.050781 C 925.261719 139.710938 919.582031 142.15625 914.40625 145.671875 Z M 903.269531 104.257812 C 903.171875 104.21875 903.066406 104.152344 902.96875 104.144531 C 902.804688 104.132812 902.636719 104.160156 902.464844 104.171875 C 891.582031 105.21875 881.105469 108.171875 870.539062 110.746094 C 868.464844 111.25 866.367188 111.660156 864.285156 112.117188 C 862.773438 112.445312 861.191406 112.609375 859.742188 113.132812 C 855.191406 114.765625 850.777344 116.785156 845.972656 118.125 C 848.042969 118.105469 850.113281 118.195312 852.167969 118.054688 C 859.15625 117.570312 866.070312 116.628906 872.8125 114.601562 C 876.15625 113.601562 879.582031 112.839844 883.011719 112.191406 C 889.179688 111.019531 894.9375 108.753906 900.566406 106.074219 C 901.433594 105.664062 902.328125 105.21875 902.386719 104.054688 C 902.675781 104.121094 902.976562 104.191406 903.269531 104.257812 Z M 853.378906 82.757812 C 853.894531 82.90625 854.132812 82.78125 853.992188 82.417969 C 853.964844 82.34375 853.644531 82.34375 853.476562 82.371094 C 853.117188 82.417969 852.757812 82.507812 852.402344 82.574219 C 840.585938 83.496094 829.28125 81.15625 818.097656 77.585938 C 806.265625 73.808594 794.183594 70.921875 782.046875 68.304688 C 781.550781 68.203125 781.019531 68.265625 780.460938 68.445312 C 788.066406 70.261719 794.816406 74.199219 802.074219 76.847656 C 814.726562 81.46875 827.601562 84.839844 841.203125 84.613281 C 844.105469 84.566406 847.023438 84.480469 849.859375 83.75 C 850.757812 83.515625 851.808594 83.480469 852.320312 82.460938 C 852.671875 82.558594 853.03125 82.652344 853.378906 82.757812 Z M 916.441406 141.632812 L 916.660156 141.625 C 919.996094 140.058594 923.332031 138.476562 926.671875 136.90625 C 927.027344 136.746094 927.386719 136.5625 927.757812 136.488281 C 935.167969 135.003906 942.394531 132.769531 950.070312 132.390625 C 959.597656 131.921875 969.109375 132.195312 978.628906 132.085938 C 978.988281 132.078125 979.339844 131.863281 979.699219 131.746094 C 979.75 130.699219 978.921875 130.507812 978.210938 130.289062 C 970.878906 128.007812 963.277344 127.808594 955.707031 127.367188 C 949.039062 126.972656 942.519531 128.007812 936.015625 129.242188 C 934.875 129.457031 933.660156 129.660156 932.667969 130.214844 C 927.242188 133.246094 922 136.582031 917.15625 140.503906 C 916.898438 140.710938 916.878906 141.207031 916.75 141.566406 Z M 875.300781 47.894531 C 881.445312 54.09375 887.5625 60.417969 895.207031 64.882812 C 902.425781 69.105469 909.824219 72.992188 917.460938 76.402344 C 917.972656 76.632812 918.566406 76.683594 919.988281 77.023438 C 915.710938 73.441406 912.1875 70.261719 908.417969 67.398438 C 903.007812 63.28125 897.425781 59.390625 891.921875 55.390625 C 890.820312 54.59375 889.585938 53.902344 888.695312 52.910156 C 884.601562 48.328125 879.21875 45.519531 874.269531 42.113281 C 872.628906 40.988281 870.875 40.238281 868.972656 39.761719 C 868.765625 39.636719 868.554688 39.503906 868.339844 39.382812 C 868.433594 39.472656 868.503906 39.597656 868.613281 39.640625 C 868.746094 39.695312 868.910156 39.6875 869.058594 39.699219 C 870.507812 42.902344 872.941406 45.519531 875.300781 47.894531 Z M 872.558594 79.089844 C 858.652344 76.21875 844.734375 73.507812 830.605469 71.953125 C 820.761719 70.875 810.941406 69.605469 800.972656 68.410156 C 802.160156 69.953125 803.941406 69.644531 805.351562 70.234375 C 806.964844 70.902344 808.605469 71.5625 810.28125 72.023438 C 818.527344 74.3125 826.78125 76.566406 835.050781 78.757812 C 838.824219 79.757812 842.691406 80.15625 846.601562 80.136719 C 853.207031 80.097656 859.808594 80.167969 866.414062 80.058594 C 868.464844 80.023438 870.691406 80.558594 872.5 78.992188 C 872.484375 79.039062 872.742188 78.945312 872.558594 79.089844 Z M 924.609375 60.824219 C 923.957031 60.109375 923.109375 59.574219 922.460938 58.855469 C 913.636719 49.058594 902.046875 43.589844 890.355469 38.296875 C 888.773438 37.578125 887.078125 37.066406 885.386719 36.644531 C 880.125 35.324219 874.835938 34.085938 869.457031 33.125 C 873.601562 35.964844 878.375 37.335938 882.933594 39.152344 C 889.984375 41.960938 896.695312 45.394531 902.871094 49.84375 C 905.546875 51.773438 908.257812 53.667969 911.039062 55.433594 C 915.496094 58.25 919.363281 61.796875 923.304688 65.242188 C 925.503906 67.164062 927.125 69.59375 928.820312 71.980469 C 931.863281 76.257812 935.296875 80.214844 940.488281 82.054688 L 940.578125 82.351562 L 940.539062 82.140625 C 937.113281 73.632812 930.625 67.40625 924.609375 60.824219 Z M 836.296875 116.257812 C 843.347656 114.941406 850.511719 114.132812 857.25 111.464844 C 858.691406 110.898438 860.160156 110.296875 861.675781 110.039062 C 870.886719 108.464844 879.851562 105.839844 888.929688 103.734375 C 892.328125 102.949219 895.832031 102.617188 899.28125 102.066406 C 901.714844 101.683594 904.214844 101.519531 906.792969 100.394531 C 905.617188 98.9375 904.195312 99.007812 902.996094 98.851562 C 892.515625 97.511719 882.0625 97.644531 871.65625 99.570312 C 867.621094 100.324219 863.765625 101.609375 860.09375 103.484375 C 858.363281 104.367188 856.628906 105.355469 854.773438 105.839844 C 848.03125 107.601562 842.492188 111.5625 836.851562 115.367188 C 836.59375 115.542969 836.527344 116.019531 836.375 116.355469 C 836.351562 116.320312 836.324219 116.289062 836.296875 116.257812 Z M 777.175781 61.167969 L 777.34375 61.128906 C 789.121094 59.960938 800.925781 59.273438 812.757812 59.417969 C 825.226562 59.570312 837.578125 60.84375 849.394531 65.164062 C 855.40625 67.359375 861.324219 69.816406 867.222656 72.300781 C 870.242188 73.574219 873.261719 74.742188 876.5 75.875 C 876.429688 75.101562 876.527344 74.59375 876.34375 74.449219 C 871.800781 70.808594 867.199219 67.253906 862.144531 64.320312 C 854.867188 60.089844 847.195312 56.933594 838.921875 55.269531 C 835.496094 54.582031 832.074219 53.871094 828.667969 53.097656 C 819.820312 51.085938 810.824219 51.019531 802.0625 52.773438 C 793.570312 54.472656 785.054688 56.640625 777.421875 61.128906 Z M 819.78125 67.984375 C 833.457031 69.683594 847.207031 70.953125 860.6875 74.042969 C 862.183594 74.382812 863.71875 74.574219 865.957031 74.960938 C 842.917969 62.914062 817.664062 59.796875 786.238281 64.226562 C 797.414062 65.46875 808.609375 66.59375 819.78125 67.984375 Z M 879.453125 42.320312 C 881.085938 43.367188 882.894531 44.242188 884.277344 45.558594 C 893.75 54.515625 905.003906 61.207031 914.890625 69.664062 C 919.257812 73.402344 924.441406 76.195312 929.511719 79.148438 C 927.207031 74.546875 924.644531 70.222656 920.816406 66.769531 C 918.800781 64.945312 916.964844 62.875 914.777344 61.300781 C 907.863281 56.3125 901.082031 51.105469 893.496094 47.132812 C 889.035156 44.796875 884.742188 42.105469 879.882812 40.601562 C 878.96875 40.320312 878.0625 40.035156 877.003906 39.703125 C 877.433594 41.183594 878.484375 41.699219 879.453125 42.320312 Z M 921.390625 149.238281 C 936.316406 148.148438 951.039062 145.738281 965.621094 142.417969 C 968.496094 141.761719 971.113281 140.496094 973.746094 139.261719 C 974.738281 138.796875 976.023438 138.679688 976.445312 137.378906 C 976.304688 137.226562 976.148438 136.953125 976.035156 136.964844 C 968.75 137.902344 961.410156 138.128906 954.144531 139.671875 C 947.160156 141.15625 940.121094 142.757812 932.933594 143.1875 C 930.1875 143.351562 927.601562 144 925.082031 145.140625 C 922.652344 146.246094 920.113281 147.097656 917.515625 148.101562 C 918.714844 149.671875 920.144531 149.332031 921.390625 149.238281 Z M 921.390625 149.238281 " fill-opacity="1" fill-rule="nonzero"/></g></svg>