<svg xmlns="http://www.w3.org/2000/svg" xmlns:xlink="http://www.w3.org/1999/xlink" width="60" zoomAndPan="magnify" viewBox="0 0 45 41.25" height="55" preserveAspectRatio="xMidYMid meet" version="1.0"><defs><g/><clipPath id="996a43a1b2"><path d="M 0.402344 0 L 44.597656 0 L 44.597656 40.511719 L 0.402344 40.511719 Z M 0.402344 0 " clip-rule="nonzero"/></clipPath></defs><g clip-path="url(#996a43a1b2)"><path fill="#ffffff" d="M 0.402344 0 L 44.597656 0 L 44.597656 47.878906 L 0.402344 47.878906 Z M 0.402344 0 " fill-opacity="1" fill-rule="nonzero"/><path fill="#ffffff" d="M 0.402344 0 L 44.597656 0 L 44.597656 40.511719 L 0.402344 40.511719 Z M 0.402344 0 " fill-opacity="1" fill-rule="nonzero"/><path fill="#738561" d="M 0.402344 0 L 44.597656 0 L 44.597656 40.511719 L 0.402344 40.511719 Z M 0.402344 0 " fill-opacity="1" fill-rule="nonzero"/></g><g fill="#ffffff" fill-opacity="1"><g transform="translate(2.479428, 31.057104)"><g><path d="M 22.84375 -22.304688 L 13.152344 -2.191406 L 3.464844 -22.304688 L 0.953125 -22.304688 L 2.160156 -19.792969 L 2.160156 -5.210938 C 2.160156 -2.253906 1.429688 -0.285156 0.953125 -0.285156 L 0.953125 0 L 3.652344 0 L 3.652344 -0.285156 C 3.175781 -0.285156 2.445312 -2.253906 2.445312 -5.210938 L 2.445312 -19.222656 L 11.691406 0 L 14.203125 0 L 13.3125 -1.875 L 22.84375 -21.636719 L 22.84375 -2.730469 C 22.84375 -0.667969 22.304688 -0.285156 22.113281 -0.285156 L 22.113281 0 L 25.863281 0 L 25.863281 -0.285156 C 25.671875 -0.285156 25.132812 -0.667969 25.132812 -2.730469 L 25.132812 -19.570312 C 25.132812 -21.667969 25.671875 -22.019531 25.863281 -22.019531 L 25.863281 -22.304688 Z M 22.84375 -22.304688 "/></g></g></g><g fill="#ffffff" fill-opacity="1"><g transform="translate(23.361188, 31.057104)"><g><path d="M 9.214844 -14.933594 L 12.644531 -18.363281 C 14.203125 -19.921875 16.710938 -22.019531 18.460938 -22.019531 L 18.460938 -22.304688 L 13.375 -22.304688 L 13.375 -22.019531 C 15.3125 -22.019531 14.648438 -20.777344 12.519531 -18.617188 L 3.941406 -10.070312 L 3.941406 -19.570312 C 3.941406 -21.667969 4.480469 -22.019531 4.703125 -22.019531 L 4.703125 -22.304688 L 0.953125 -22.304688 L 0.953125 -22.019531 C 1.144531 -22.019531 1.683594 -21.667969 1.683594 -19.570312 L 1.683594 -2.730469 C 1.683594 -0.667969 1.144531 -0.285156 0.953125 -0.285156 L 0.953125 0 L 4.703125 0 L 4.703125 -0.285156 C 4.480469 -0.285156 3.941406 -0.667969 3.941406 -2.730469 L 3.941406 -9.691406 L 7.53125 -13.25 L 13.375 -2.890625 C 14.613281 -0.730469 14.519531 -0.285156 14.203125 -0.285156 L 14.203125 0 L 18.171875 0 L 18.171875 -0.285156 C 17.792969 -0.285156 16.996094 -1.144531 15.664062 -3.464844 Z M 9.214844 -14.933594 "/></g></g></g></svg>